<svg width="310" height="196" viewBox="0 0 310 196" fill="none" xmlns="http://www.w3.org/2000/svg">
<g filter="url(#filter0_d)">
<rect x="15" y="5" width="280" height="166" rx="5" fill="white"/>
</g>
<circle cx="157" cy="60" r="24" fill="#CFE5FF"/>
<path d="M157.052 47.8438C150.337 47.8438 144.844 53.3373 144.844 60.0515C144.844 66.7658 150.337 72.2593 157.052 72.2593C163.766 72.2593 169.259 66.7658 169.259 60.0515C169.259 53.3373 163.766 47.8438 157.052 47.8438ZM152.693 63.0302L151.033 62.2856C151.375 61.6019 151.558 60.8695 151.558 60.1126C151.558 59.3069 151.375 58.5378 151.033 57.8175L152.693 57.0728C153.157 58.0617 153.389 59.0749 153.389 60.1126C153.389 61.0282 153.157 62.0048 152.693 63.0302ZM156.478 64.8614L154.879 64.0679C155.526 62.6884 155.831 61.2723 155.831 59.8806C155.831 58.5012 155.526 57.2315 154.879 56.0352L156.478 55.1196C157.283 56.5357 157.662 58.1227 157.662 59.8806C157.662 61.6752 157.283 63.3354 156.478 64.8614ZM160.323 66.5827L158.651 65.7282C159.615 63.8482 160.103 61.9682 160.103 60.0515C160.103 58.1349 159.615 56.2305 158.651 54.3261L160.323 53.5204C161.385 55.6934 161.935 57.8786 161.935 60.0515C161.935 62.2734 161.385 64.4463 160.323 66.5827Z" fill="#277EF0"/>
<path d="M45.1468 106.516H45.1748L48.0868 115H49.2488L52.1328 106.446H52.1608L53.4208 115H54.7088L53.1268 104.584H51.5168L48.7028 113.04H48.6888L45.7908 104.584H44.2088L42.6128 115H43.9008L45.1468 106.516ZM59.5636 115.168C60.6556 115.168 61.6916 114.636 62.2656 113.614L62.4196 115H63.4696V107.426H62.4196L62.2656 108.826C61.6916 107.804 60.6556 107.258 59.5636 107.258C57.7856 107.258 56.1196 108.798 56.1196 111.22C56.1196 113.614 57.7856 115.168 59.5636 115.168ZM59.8296 113.964C58.4716 113.964 57.4216 112.844 57.4216 111.22C57.4216 109.582 58.4716 108.462 59.8296 108.462C61.1596 108.462 62.2236 109.582 62.2236 111.206C62.2236 112.844 61.1596 113.964 59.8296 113.964ZM72.2224 115L68.6104 111.024L72.0964 107.426H70.4584L67.1124 110.94V103.8H65.8244V115H67.1124V111.15L70.5564 115H72.2224ZM79.5379 111.066C79.5379 108.574 78.0679 107.258 76.2759 107.258C74.3159 107.258 72.6219 108.798 72.6219 111.248C72.6219 113.586 74.1059 115.168 76.4579 115.168C77.4379 115.168 78.3339 114.888 79.1039 114.328V113.054C78.3199 113.726 77.4239 114.048 76.5559 114.048C75.1279 114.048 74.0639 113.138 73.8819 111.64H79.4959C79.5239 111.472 79.5379 111.29 79.5379 111.066ZM73.8819 110.674C74.0779 109.26 75.0999 108.378 76.2619 108.378C77.2979 108.378 78.2639 109.106 78.2919 110.674H73.8819ZM88.1652 115.168C89.2572 115.168 90.2932 114.636 90.8672 113.614L91.0212 115H92.0712V107.426H91.0212L90.8672 108.826C90.2932 107.804 89.2572 107.258 88.1652 107.258C86.3872 107.258 84.7212 108.798 84.7212 111.22C84.7212 113.614 86.3872 115.168 88.1652 115.168ZM88.4312 113.964C87.0732 113.964 86.0232 112.844 86.0232 111.22C86.0232 109.582 87.0732 108.462 88.4312 108.462C89.7612 108.462 90.8252 109.582 90.8252 111.206C90.8252 112.844 89.7612 113.964 88.4312 113.964ZM97.926 107.258C96.848 107.258 96.036 107.874 95.602 108.574H95.56L95.42 107.426H94.426V115H95.714V110.38C95.714 109.274 96.526 108.49 97.604 108.49C98.738 108.49 99.34 109.12 99.34 110.45V115H100.628V109.988C100.628 108.322 99.564 107.258 97.926 107.258ZM105.871 115.168C106.949 115.168 107.999 114.636 108.573 113.614L108.727 115H109.777V103.8H108.489V108.742C107.971 107.79 106.921 107.258 105.871 107.258C104.079 107.258 102.427 108.784 102.427 111.22C102.427 113.628 104.093 115.168 105.871 115.168ZM106.137 113.964C104.779 113.964 103.715 112.844 103.715 111.22C103.715 109.582 104.779 108.462 106.137 108.462C107.467 108.462 108.517 109.582 108.517 111.206C108.517 112.844 107.467 113.964 106.137 113.964ZM115.946 115H117.234V110.688C117.234 109.204 118.256 108.56 119.264 108.56C119.446 108.56 119.628 108.588 119.796 108.616V107.384C119.642 107.356 119.488 107.342 119.292 107.342C118.62 107.342 117.64 107.65 117.122 108.63H117.108L116.968 107.426H115.946V115ZM127.389 111.066C127.389 108.574 125.919 107.258 124.127 107.258C122.167 107.258 120.473 108.798 120.473 111.248C120.473 113.586 121.957 115.168 124.309 115.168C125.289 115.168 126.185 114.888 126.955 114.328V113.054C126.171 113.726 125.275 114.048 124.407 114.048C122.979 114.048 121.915 113.138 121.733 111.64H127.347C127.375 111.472 127.389 111.29 127.389 111.066ZM121.733 110.674C121.929 109.26 122.951 108.378 124.113 108.378C125.149 108.378 126.115 109.106 126.143 110.674H121.733ZM130.047 111.206C130.047 109.498 131.307 108.462 132.637 108.462C133.421 108.462 134.037 108.644 134.667 109.106V107.79C134.065 107.412 133.351 107.258 132.567 107.258C130.383 107.258 128.745 108.966 128.745 111.206C128.745 113.474 130.383 115.168 132.567 115.168C133.393 115.168 134.107 114.972 134.667 114.65V113.348C134.037 113.838 133.281 113.964 132.651 113.964C131.307 113.964 130.047 112.942 130.047 111.206ZM142.893 111.066C142.893 108.574 141.423 107.258 139.631 107.258C137.671 107.258 135.977 108.798 135.977 111.248C135.977 113.586 137.461 115.168 139.813 115.168C140.793 115.168 141.689 114.888 142.459 114.328V113.054C141.675 113.726 140.779 114.048 139.911 114.048C138.483 114.048 137.419 113.138 137.237 111.64H142.851C142.879 111.472 142.893 111.29 142.893 111.066ZM137.237 110.674C137.433 109.26 138.455 108.378 139.617 108.378C140.653 108.378 141.619 109.106 141.647 110.674H137.237ZM145.41 105.69C145.873 105.69 146.209 105.354 146.209 104.906C146.209 104.458 145.873 104.122 145.41 104.122C144.949 104.122 144.613 104.458 144.613 104.906C144.613 105.354 144.949 105.69 145.41 105.69ZM144.767 115H146.055V107.426H144.767V115ZM150.348 115H151.748L154.506 107.426H153.176L151.09 113.572H151.048L148.962 107.426H147.59L150.348 115ZM162.198 111.066C162.198 108.574 160.728 107.258 158.936 107.258C156.976 107.258 155.282 108.798 155.282 111.248C155.282 113.586 156.766 115.168 159.118 115.168C160.098 115.168 160.994 114.888 161.764 114.328V113.054C160.98 113.726 160.084 114.048 159.216 114.048C157.788 114.048 156.724 113.138 156.542 111.64H162.156C162.184 111.472 162.198 111.29 162.198 111.066ZM156.542 110.674C156.738 109.26 157.76 108.378 158.922 108.378C159.958 108.378 160.924 109.106 160.952 110.674H156.542ZM167.871 117.94H169.159V113.684C169.663 114.608 170.727 115.168 171.777 115.168C173.569 115.168 175.207 113.642 175.207 111.206C175.207 108.798 173.555 107.258 171.763 107.258C170.685 107.258 169.649 107.804 169.075 108.826L168.921 107.426H167.871V117.94ZM171.511 113.964C170.181 113.964 169.131 112.844 169.131 111.22C169.131 109.582 170.181 108.462 171.511 108.462C172.869 108.462 173.919 109.582 173.919 111.206C173.919 112.858 172.869 113.964 171.511 113.964ZM180.054 115.168C181.146 115.168 182.182 114.636 182.756 113.614L182.91 115H183.96V107.426H182.91L182.756 108.826C182.182 107.804 181.146 107.258 180.054 107.258C178.276 107.258 176.61 108.798 176.61 111.22C176.61 113.614 178.276 115.168 180.054 115.168ZM180.32 113.964C178.962 113.964 177.912 112.844 177.912 111.22C177.912 109.582 178.962 108.462 180.32 108.462C181.65 108.462 182.714 109.582 182.714 111.206C182.714 112.844 181.65 113.964 180.32 113.964ZM192.405 107.426H191.061L188.975 113.194H188.947L186.861 107.426H185.461L188.289 114.734L186.987 117.94H188.303L192.405 107.426ZM201.365 107.258C200.357 107.258 199.629 107.79 199.181 108.588C198.817 107.748 198.159 107.258 197.081 107.258C196.129 107.258 195.429 107.818 195.051 108.546H195.009L194.869 107.426H193.875V115H195.163V110.226C195.163 109.33 195.709 108.49 196.731 108.49C197.739 108.49 198.173 109.064 198.173 110.156V115H199.461V110.156C199.461 109.288 200.035 108.49 201.043 108.49C202.051 108.49 202.471 109.064 202.471 110.156V115H203.759V109.946C203.759 108.364 203.017 107.258 201.365 107.258ZM212.483 111.066C212.483 108.574 211.013 107.258 209.221 107.258C207.261 107.258 205.567 108.798 205.567 111.248C205.567 113.586 207.051 115.168 209.403 115.168C210.383 115.168 211.279 114.888 212.049 114.328V113.054C211.265 113.726 210.369 114.048 209.501 114.048C208.073 114.048 207.009 113.138 206.827 111.64H212.441C212.469 111.472 212.483 111.29 212.483 111.066ZM206.827 110.674C207.023 109.26 208.045 108.378 209.207 108.378C210.243 108.378 211.209 109.106 211.237 110.674H206.827ZM217.828 107.258C216.75 107.258 215.938 107.874 215.504 108.574H215.462L215.322 107.426H214.328V115H215.616V110.38C215.616 109.274 216.428 108.49 217.506 108.49C218.64 108.49 219.242 109.12 219.242 110.45V115H220.53V109.988C220.53 108.322 219.466 107.258 217.828 107.258ZM224.332 105.648H223.1V107.426H221.938V108.546H223.072V112.354C223.072 114.118 224.136 115.098 225.774 115.098C226.194 115.098 226.53 115.042 226.67 115.014V113.894C226.432 113.936 226.208 113.964 225.998 113.964C225.032 113.964 224.332 113.474 224.332 112.298V108.546H226.502V107.426H224.332V105.648ZM230.585 107.258C228.905 107.258 227.855 108.21 227.855 109.484C227.855 110.814 228.961 111.22 230.207 111.598C231.299 111.934 232.013 112.172 232.013 112.9C232.013 113.572 231.425 114.02 230.403 114.02C229.311 114.02 228.415 113.544 227.827 112.942V114.328C228.527 114.888 229.465 115.168 230.445 115.168C232.195 115.168 233.273 114.272 233.273 112.886C233.273 111.36 231.957 110.982 230.795 110.646C229.773 110.352 229.115 110.1 229.115 109.428C229.115 108.812 229.647 108.406 230.599 108.406C231.495 108.406 232.321 108.728 232.867 109.19V107.916C232.335 107.51 231.453 107.258 230.585 107.258ZM245.426 115H246.896L249.024 107.426H247.75L246.14 113.558H246.098L244.18 107.426H242.836L240.904 113.558H240.876L239.294 107.426H237.95L240.092 115H241.562L243.48 109.064H243.522L245.426 115ZM251.327 105.69C251.789 105.69 252.125 105.354 252.125 104.906C252.125 104.458 251.789 104.122 251.327 104.122C250.865 104.122 250.529 104.458 250.529 104.906C250.529 105.354 250.865 105.69 251.327 105.69ZM250.683 115H251.971V107.426H250.683V115ZM255.928 105.648H254.696V107.426H253.534V108.546H254.668V112.354C254.668 114.118 255.732 115.098 257.37 115.098C257.79 115.098 258.126 115.042 258.266 115.014V113.894C258.028 113.936 257.804 113.964 257.594 113.964C256.628 113.964 255.928 113.474 255.928 112.298V108.546H258.098V107.426H255.928V105.648ZM261.089 103.8H259.801V115H261.089V110.31C261.089 109.05 261.971 108.462 262.979 108.462C264.141 108.462 264.715 109.106 264.715 110.436V115H266.003V109.988C266.003 108.21 264.939 107.258 263.273 107.258C262.349 107.258 261.537 107.692 261.103 108.336H261.089V103.8ZM49.6238 131.066C49.6238 128.574 48.1538 127.258 46.3618 127.258C44.4018 127.258 42.7078 128.798 42.7078 131.248C42.7078 133.586 44.1918 135.168 46.5438 135.168C47.5238 135.168 48.4198 134.888 49.1898 134.328V133.054C48.4058 133.726 47.5098 134.048 46.6418 134.048C45.2138 134.048 44.1498 133.138 43.9678 131.64H49.5818C49.6098 131.472 49.6238 131.29 49.6238 131.066ZM43.9678 130.674C44.1638 129.26 45.1858 128.378 46.3478 128.378C47.3838 128.378 48.3498 129.106 48.3778 130.674H43.9678ZM54.423 135.168C55.515 135.168 56.551 134.636 57.125 133.614L57.279 135H58.329V127.426H57.279L57.125 128.826C56.551 127.804 55.515 127.258 54.423 127.258C52.645 127.258 50.979 128.798 50.979 131.22C50.979 133.614 52.645 135.168 54.423 135.168ZM54.689 133.964C53.331 133.964 52.281 132.844 52.281 131.22C52.281 129.582 53.331 128.462 54.689 128.462C56.019 128.462 57.083 129.582 57.083 131.206C57.083 132.844 56.019 133.964 54.689 133.964ZM63.0638 127.258C61.3838 127.258 60.3338 128.21 60.3338 129.484C60.3338 130.814 61.4398 131.22 62.6858 131.598C63.7778 131.934 64.4918 132.172 64.4918 132.9C64.4918 133.572 63.9038 134.02 62.8818 134.02C61.7898 134.02 60.8938 133.544 60.3058 132.942V134.328C61.0058 134.888 61.9438 135.168 62.9238 135.168C64.6738 135.168 65.7518 134.272 65.7518 132.886C65.7518 131.36 64.4358 130.982 63.2738 130.646C62.2518 130.352 61.5938 130.1 61.5938 129.428C61.5938 128.812 62.1258 128.406 63.0778 128.406C63.9738 128.406 64.7998 128.728 65.3458 129.19V127.916C64.8138 127.51 63.9318 127.258 63.0638 127.258ZM74.0281 131.066C74.0281 128.574 72.5581 127.258 70.7661 127.258C68.8061 127.258 67.1121 128.798 67.1121 131.248C67.1121 133.586 68.5961 135.168 70.9481 135.168C71.9281 135.168 72.8241 134.888 73.5941 134.328V133.054C72.8101 133.726 71.9141 134.048 71.0461 134.048C69.6181 134.048 68.5541 133.138 68.3721 131.64H73.9861C74.0141 131.472 74.0281 131.29 74.0281 131.066ZM68.3721 130.674C68.5681 129.26 69.5901 128.378 70.7521 128.378C71.7881 128.378 72.7541 129.106 72.7821 130.674H68.3721ZM82.6554 135.168C83.7474 135.168 84.7834 134.636 85.3574 133.614L85.5114 135H86.5614V127.426H85.5114L85.3574 128.826C84.7834 127.804 83.7474 127.258 82.6554 127.258C80.8774 127.258 79.2114 128.798 79.2114 131.22C79.2114 133.614 80.8774 135.168 82.6554 135.168ZM82.9214 133.964C81.5634 133.964 80.5134 132.844 80.5134 131.22C80.5134 129.582 81.5634 128.462 82.9214 128.462C84.2514 128.462 85.3154 129.582 85.3154 131.206C85.3154 132.844 84.2514 133.964 82.9214 133.964ZM92.4162 127.258C91.3382 127.258 90.5262 127.874 90.0922 128.574H90.0502L89.9102 127.426H88.9162V135H90.2042V130.38C90.2042 129.274 91.0162 128.49 92.0942 128.49C93.2282 128.49 93.8302 129.12 93.8302 130.45V135H95.1182V129.988C95.1182 128.322 94.0542 127.258 92.4162 127.258ZM103.319 127.426H101.975L99.8887 133.194H99.8607L97.7747 127.426H96.3747L99.2027 134.734L97.9007 137.94H99.2167L103.319 127.426ZM111.537 135H113.007L115.135 127.426H113.861L112.251 133.558H112.209L110.291 127.426H108.947L107.015 133.558H106.987L105.405 127.426H104.061L106.203 135H107.673L109.591 129.064H109.633L111.537 135ZM118.054 123.8H116.766V135H118.054V130.31C118.054 129.05 118.936 128.462 119.944 128.462C121.106 128.462 121.68 129.106 121.68 130.436V135H122.968V129.988C122.968 128.21 121.904 127.258 120.238 127.258C119.314 127.258 118.502 127.692 118.068 128.336H118.054V123.8ZM131.696 131.066C131.696 128.574 130.226 127.258 128.434 127.258C126.474 127.258 124.78 128.798 124.78 131.248C124.78 133.586 126.264 135.168 128.616 135.168C129.596 135.168 130.492 134.888 131.262 134.328V133.054C130.478 133.726 129.582 134.048 128.714 134.048C127.286 134.048 126.222 133.138 126.04 131.64H131.654C131.682 131.472 131.696 131.29 131.696 131.066ZM126.04 130.674C126.236 129.26 127.258 128.378 128.42 128.378C129.456 128.378 130.422 129.106 130.45 130.674H126.04ZM133.541 135H134.829V130.688C134.829 129.204 135.851 128.56 136.859 128.56C137.041 128.56 137.223 128.588 137.391 128.616V127.384C137.237 127.356 137.083 127.342 136.887 127.342C136.215 127.342 135.235 127.65 134.717 128.63H134.703L134.563 127.426H133.541V135ZM144.985 131.066C144.985 128.574 143.515 127.258 141.723 127.258C139.763 127.258 138.069 128.798 138.069 131.248C138.069 133.586 139.553 135.168 141.905 135.168C142.885 135.168 143.781 134.888 144.551 134.328V133.054C143.767 133.726 142.871 134.048 142.003 134.048C140.575 134.048 139.511 133.138 139.329 131.64H144.943C144.971 131.472 144.985 131.29 144.985 131.066ZM139.329 130.674C139.525 129.26 140.547 128.378 141.709 128.378C142.745 128.378 143.711 129.106 143.739 130.674H139.329ZM153.612 135.168C154.704 135.168 155.74 134.636 156.314 133.614L156.468 135H157.518V127.426H156.468L156.314 128.826C155.74 127.804 154.704 127.258 153.612 127.258C151.834 127.258 150.168 128.798 150.168 131.22C150.168 133.614 151.834 135.168 153.612 135.168ZM153.878 133.964C152.52 133.964 151.47 132.844 151.47 131.22C151.47 129.582 152.52 128.462 153.878 128.462C155.208 128.462 156.272 129.582 156.272 131.206C156.272 132.844 155.208 133.964 153.878 133.964ZM159.873 135H161.161V130.688C161.161 129.204 162.183 128.56 163.191 128.56C163.373 128.56 163.555 128.588 163.723 128.616V127.384C163.569 127.356 163.415 127.342 163.219 127.342C162.547 127.342 161.567 127.65 161.049 128.63H161.035L160.895 127.426H159.873V135ZM168.167 135.168C170.309 135.168 171.919 133.488 171.919 131.22C171.919 128.938 170.309 127.258 168.167 127.258C166.011 127.258 164.387 128.938 164.387 131.22C164.387 133.502 166.011 135.168 168.167 135.168ZM168.167 133.964C166.893 133.964 165.689 132.97 165.689 131.22C165.689 129.47 166.893 128.462 168.167 128.462C169.427 128.462 170.631 129.47 170.631 131.22C170.631 132.956 169.427 133.964 168.167 133.964ZM176.773 135.168C178.719 135.168 179.909 133.908 179.909 132.088V127.426H178.621V132.116C178.621 133.278 177.907 133.964 176.773 133.964C175.667 133.964 174.981 133.278 174.981 132.116V127.426H173.693V132.088C173.693 133.908 174.841 135.168 176.773 135.168ZM185.658 127.258C184.58 127.258 183.768 127.874 183.334 128.574H183.292L183.152 127.426H182.158V135H183.446V130.38C183.446 129.274 184.258 128.49 185.336 128.49C186.47 128.49 187.072 129.12 187.072 130.45V135H188.36V129.988C188.36 128.322 187.296 127.258 185.658 127.258ZM193.603 135.168C194.681 135.168 195.731 134.636 196.305 133.614L196.459 135H197.509V123.8H196.221V128.742C195.703 127.79 194.653 127.258 193.603 127.258C191.811 127.258 190.159 128.784 190.159 131.22C190.159 133.628 191.825 135.168 193.603 135.168ZM193.869 133.964C192.511 133.964 191.447 132.844 191.447 131.22C191.447 129.582 192.511 128.462 193.869 128.462C195.199 128.462 196.249 129.582 196.249 131.206C196.249 132.844 195.199 133.964 193.869 133.964ZM205.069 125.648H203.837V127.426H202.675V128.546H203.809V132.354C203.809 134.118 204.873 135.098 206.511 135.098C206.931 135.098 207.267 135.042 207.407 135.014V133.894C207.169 133.936 206.945 133.964 206.735 133.964C205.769 133.964 205.069 133.474 205.069 132.298V128.546H207.239V127.426H205.069V125.648ZM210.23 123.8H208.942V135H210.23V130.31C210.23 129.05 211.112 128.462 212.12 128.462C213.282 128.462 213.856 129.106 213.856 130.436V135H215.144V129.988C215.144 128.21 214.08 127.258 212.414 127.258C211.49 127.258 210.678 127.692 210.244 128.336H210.23V123.8ZM223.872 131.066C223.872 128.574 222.402 127.258 220.61 127.258C218.65 127.258 216.956 128.798 216.956 131.248C216.956 133.586 218.44 135.168 220.792 135.168C221.772 135.168 222.668 134.888 223.438 134.328V133.054C222.654 133.726 221.758 134.048 220.89 134.048C219.462 134.048 218.398 133.138 218.216 131.64H223.83C223.858 131.472 223.872 131.29 223.872 131.066ZM218.216 130.674C218.412 129.26 219.434 128.378 220.596 128.378C221.632 128.378 222.598 129.106 222.626 130.674H218.216ZM236.033 135H237.503L239.631 127.426H238.357L236.747 133.558H236.705L234.787 127.426H233.443L231.511 133.558H231.483L229.901 127.426H228.557L230.699 135H232.169L234.087 129.064H234.129L236.033 135ZM244.374 135.168C246.516 135.168 248.126 133.488 248.126 131.22C248.126 128.938 246.516 127.258 244.374 127.258C242.218 127.258 240.594 128.938 240.594 131.22C240.594 133.502 242.218 135.168 244.374 135.168ZM244.374 133.964C243.1 133.964 241.896 132.97 241.896 131.22C241.896 129.47 243.1 128.462 244.374 128.462C245.634 128.462 246.838 129.47 246.838 131.22C246.838 132.956 245.634 133.964 244.374 133.964ZM249.998 135H251.286V130.688C251.286 129.204 252.308 128.56 253.316 128.56C253.498 128.56 253.68 128.588 253.848 128.616V127.384C253.694 127.356 253.54 127.342 253.344 127.342C252.672 127.342 251.692 127.65 251.174 128.63H251.16L251.02 127.426H249.998V135ZM255.29 135H256.578V123.8H255.29V135ZM261.921 135.168C262.999 135.168 264.049 134.636 264.623 133.614L264.777 135H265.827V123.8H264.539V128.742C264.021 127.79 262.971 127.258 261.921 127.258C260.129 127.258 258.477 128.784 258.477 131.22C258.477 133.628 260.143 135.168 261.921 135.168ZM262.187 133.964C260.829 133.964 259.765 132.844 259.765 131.22C259.765 129.582 260.829 128.462 262.187 128.462C263.517 128.462 264.567 129.582 264.567 131.206C264.567 132.844 263.517 133.964 262.187 133.964Z" fill="#171717"/>
<defs>
<filter id="filter0_d" x="0" y="0" width="310" height="196" filterUnits="userSpaceOnUse" color-interpolation-filters="sRGB">
<feFlood flood-opacity="0" result="BackgroundImageFix"/>
<feColorMatrix in="SourceAlpha" type="matrix" values="0 0 0 0 0 0 0 0 0 0 0 0 0 0 0 0 0 0 127 0"/>
<feOffset dy="10"/>
<feGaussianBlur stdDeviation="7.5"/>
<feColorMatrix type="matrix" values="0 0 0 0 0 0 0 0 0 0 0 0 0 0 0 0 0 0 0.04 0"/>
<feBlend mode="normal" in2="BackgroundImageFix" result="effect1_dropShadow"/>
<feBlend mode="normal" in="SourceGraphic" in2="effect1_dropShadow" result="shape"/>
</filter>
</defs>
</svg>
