<svg width="172" height="56" viewBox="0 0 172 56" fill="none" xmlns="http://www.w3.org/2000/svg">
<rect x="0.5" y="0.5" width="171" height="55" rx="3.5" stroke="white"/>
<path d="M42.2189 33.4134C41.8497 34.2741 41.3935 35.0948 40.8576 35.8627C40.1416 36.8854 39.5536 37.5921 39.1029 37.9854C38.4029 38.6281 37.6509 38.9587 36.8469 38.9774C36.2709 38.9774 35.5749 38.8134 34.7642 38.4801C33.9509 38.1481 33.2042 37.9854 32.5202 37.9854C31.8042 37.9854 31.0362 38.1481 30.2136 38.4801C29.3922 38.8134 28.7282 38.9881 28.2202 39.0041C27.4509 39.0374 26.6816 38.6987 25.9149 37.9854C25.4256 37.5587 24.8136 36.8254 24.0789 35.7881C23.2922 34.6827 22.6456 33.3961 22.1389 31.9334C21.5962 30.3507 21.3242 28.8201 21.3242 27.3374C21.3242 25.6401 21.6909 24.1747 22.4256 22.9481C22.9812 21.9847 23.7756 21.1806 24.7322 20.6134C25.6755 20.0476 26.7523 19.743 27.8522 19.7307C28.4656 19.7307 29.2696 19.9201 30.2656 20.2934C31.2616 20.6667 31.9016 20.8561 32.1802 20.8561C32.3909 20.8561 33.0989 20.6334 34.3042 20.1921C35.4416 19.7827 36.4016 19.6134 37.1882 19.6801C39.3216 19.8521 40.9229 20.6921 41.9882 22.2067C40.0816 23.3627 39.1389 24.9801 39.1576 27.0561C39.1736 28.6734 39.7616 30.0187 40.9136 31.0867C41.4228 31.5741 42.0171 31.9641 42.6669 32.2374C42.5256 32.6467 42.3762 33.0374 42.2189 33.4134ZM37.3296 14.1721C37.3296 15.4387 36.8656 16.6227 35.9442 17.7174C34.8296 19.0187 33.4829 19.7721 32.0229 19.6534C32.0038 19.4941 31.9944 19.3338 31.9949 19.1734C31.9949 17.9561 32.5229 16.6547 33.4656 15.5894C33.9349 15.0507 34.5322 14.6014 35.2562 14.2441C35.9789 13.8921 36.6616 13.6974 37.3042 13.6641C37.3216 13.8347 37.3296 14.0041 37.3296 14.1721Z" fill="white"/>
<path d="M66.384 11.072H64.224V20H66.384C69.204 20 71.124 18.236 71.124 15.536C71.124 12.848 69.264 11.072 66.384 11.072ZM65.34 12.116H66.444C68.496 12.116 69.984 13.34 69.984 15.548C69.984 17.72 68.496 18.956 66.432 18.956H65.34V12.116ZM75.6171 20.144C77.4531 20.144 78.8331 18.704 78.8331 16.76C78.8331 14.804 77.4531 13.364 75.6171 13.364C73.7691 13.364 72.3771 14.804 72.3771 16.76C72.3771 18.716 73.7691 20.144 75.6171 20.144ZM75.6171 19.112C74.5251 19.112 73.4931 18.26 73.4931 16.76C73.4931 15.26 74.5251 14.396 75.6171 14.396C76.6971 14.396 77.7291 15.26 77.7291 16.76C77.7291 18.248 76.6971 19.112 75.6171 19.112ZM86.0576 20H87.3176L89.1416 13.508H88.0496L86.6696 18.764H86.6336L84.9896 13.508H83.8376L82.1816 18.764H82.1576L80.8016 13.508H79.6496L81.4856 20H82.7456L84.3896 14.912H84.4256L86.0576 20ZM93.5393 13.364C92.6152 13.364 91.9193 13.892 91.5473 14.492H91.5113L91.3913 13.508H90.5393V20H91.6433V16.04C91.6433 15.092 92.3393 14.42 93.2633 14.42C94.2353 14.42 94.7513 14.96 94.7513 16.1V20H95.8553V15.704C95.8553 14.276 94.9433 13.364 93.5393 13.364ZM97.8289 20H98.9329V10.4H97.8289V20ZM103.789 20.144C105.625 20.144 107.005 18.704 107.005 16.76C107.005 14.804 105.625 13.364 103.789 13.364C101.941 13.364 100.549 14.804 100.549 16.76C100.549 18.716 101.941 20.144 103.789 20.144ZM103.789 19.112C102.697 19.112 101.665 18.26 101.665 16.76C101.665 15.26 102.697 14.396 103.789 14.396C104.869 14.396 105.901 15.26 105.901 16.76C105.901 18.248 104.869 19.112 103.789 19.112ZM111.142 20.144C112.078 20.144 112.966 19.688 113.458 18.812L113.59 20H114.49V13.508H113.59L113.458 14.708C112.966 13.832 112.078 13.364 111.142 13.364C109.618 13.364 108.19 14.684 108.19 16.76C108.19 18.812 109.618 20.144 111.142 20.144ZM111.37 19.112C110.206 19.112 109.306 18.152 109.306 16.76C109.306 15.356 110.206 14.396 111.37 14.396C112.51 14.396 113.422 15.356 113.422 16.748C113.422 18.152 112.51 19.112 111.37 19.112ZM119.052 20.144C119.976 20.144 120.876 19.688 121.368 18.812L121.5 20H122.4V10.4H121.296V14.636C120.852 13.82 119.952 13.364 119.052 13.364C117.516 13.364 116.1 14.672 116.1 16.76C116.1 18.824 117.528 20.144 119.052 20.144ZM119.28 19.112C118.116 19.112 117.204 18.152 117.204 16.76C117.204 15.356 118.116 14.396 119.28 14.396C120.42 14.396 121.32 15.356 121.32 16.748C121.32 18.152 120.42 19.112 119.28 19.112ZM130.508 20.144C132.344 20.144 133.724 18.704 133.724 16.76C133.724 14.804 132.344 13.364 130.508 13.364C128.66 13.364 127.268 14.804 127.268 16.76C127.268 18.716 128.66 20.144 130.508 20.144ZM130.508 19.112C129.416 19.112 128.384 18.26 128.384 16.76C128.384 15.26 129.416 14.396 130.508 14.396C131.588 14.396 132.62 15.26 132.62 16.76C132.62 18.248 131.588 19.112 130.508 19.112ZM138.328 13.364C137.404 13.364 136.708 13.892 136.336 14.492H136.3L136.18 13.508H135.328V20H136.432V16.04C136.432 15.092 137.128 14.42 138.052 14.42C139.024 14.42 139.54 14.96 139.54 16.1V20H140.644V15.704C140.644 14.276 139.732 13.364 138.328 13.364Z" fill="white"/>
<path d="M74.248 42L69.544 30.096H67.864L63.192 42H64.76L66.152 38.384H71.256L72.648 42H74.248ZM68.696 31.76L70.76 37.056H66.632L68.696 31.76ZM75.7659 45.36H77.2379V40.496C77.8139 41.552 79.0299 42.192 80.2299 42.192C82.2779 42.192 84.1499 40.448 84.1499 37.664C84.1499 34.912 82.2619 33.152 80.2139 33.152C78.9819 33.152 77.7979 33.776 77.1419 34.944L76.9659 33.344H75.7659V45.36ZM79.9259 40.816C78.4059 40.816 77.2059 39.536 77.2059 37.68C77.2059 35.808 78.4059 34.528 79.9259 34.528C81.4779 34.528 82.6779 35.808 82.6779 37.664C82.6779 39.552 81.4779 40.816 79.9259 40.816ZM86.3128 45.36H87.7848V40.496C88.3608 41.552 89.5768 42.192 90.7768 42.192C92.8248 42.192 94.6968 40.448 94.6968 37.664C94.6968 34.912 92.8088 33.152 90.7608 33.152C89.5288 33.152 88.3448 33.776 87.6888 34.944L87.5128 33.344H86.3128V45.36ZM90.4728 40.816C88.9528 40.816 87.7528 39.536 87.7528 37.68C87.7528 35.808 88.9528 34.528 90.4728 34.528C92.0248 34.528 93.2248 35.808 93.2248 37.664C93.2248 39.552 92.0248 40.816 90.4728 40.816ZM96.8916 42H98.3636V29.2H96.8916V42ZM108.438 37.504C108.438 34.656 106.758 33.152 104.71 33.152C102.47 33.152 100.534 34.912 100.534 37.712C100.534 40.384 102.23 42.192 104.918 42.192C106.038 42.192 107.062 41.872 107.942 41.232V39.776C107.046 40.544 106.022 40.912 105.03 40.912C103.398 40.912 102.182 39.872 101.974 38.16H108.39C108.422 37.968 108.438 37.76 108.438 37.504ZM101.974 37.056C102.198 35.44 103.366 34.432 104.694 34.432C105.878 34.432 106.982 35.264 107.014 37.056H101.974ZM118.394 29.84C116.298 29.84 114.634 31.024 114.634 33.088C114.634 34.976 116.042 35.696 117.786 36.48C119.45 37.232 120.33 37.776 120.33 38.88C120.33 40.16 119.178 40.864 117.85 40.864C116.65 40.864 115.402 40.32 114.586 39.488V41.152C115.306 41.712 116.522 42.256 117.914 42.256C120.074 42.256 121.866 40.976 121.866 38.8C121.866 36.848 120.41 36.08 118.602 35.28C116.97 34.544 116.138 34.048 116.138 33.008C116.138 31.824 117.194 31.232 118.41 31.232C119.338 31.232 120.394 31.568 121.226 32.16V30.624C120.522 30.192 119.498 29.84 118.394 29.84ZM125.715 31.312H124.307V33.344H122.979V34.624H124.275V38.976C124.275 40.992 125.491 42.112 127.363 42.112C127.843 42.112 128.227 42.048 128.387 42.016V40.736C128.115 40.784 127.859 40.816 127.619 40.816C126.515 40.816 125.715 40.256 125.715 38.912V34.624H128.195V33.344H125.715V31.312ZM133.823 42.192C136.271 42.192 138.111 40.272 138.111 37.68C138.111 35.072 136.271 33.152 133.823 33.152C131.359 33.152 129.503 35.072 129.503 37.68C129.503 40.288 131.359 42.192 133.823 42.192ZM133.823 40.816C132.367 40.816 130.991 39.68 130.991 37.68C130.991 35.68 132.367 34.528 133.823 34.528C135.263 34.528 136.639 35.68 136.639 37.68C136.639 39.664 135.263 40.816 133.823 40.816ZM140.25 42H141.722V37.072C141.722 35.376 142.89 34.64 144.042 34.64C144.25 34.64 144.458 34.672 144.65 34.704V33.296C144.474 33.264 144.298 33.248 144.074 33.248C143.306 33.248 142.186 33.6 141.594 34.72H141.578L141.418 33.344H140.25V42ZM153.329 37.504C153.329 34.656 151.649 33.152 149.601 33.152C147.361 33.152 145.425 34.912 145.425 37.712C145.425 40.384 147.121 42.192 149.809 42.192C150.929 42.192 151.953 41.872 152.833 41.232V39.776C151.937 40.544 150.913 40.912 149.921 40.912C148.289 40.912 147.073 39.872 146.865 38.16H153.281C153.313 37.968 153.329 37.76 153.329 37.504ZM146.865 37.056C147.089 35.44 148.257 34.432 149.585 34.432C150.769 34.432 151.873 35.264 151.905 37.056H146.865Z" fill="white"/>
</svg>
