<svg width="172" height="56" viewBox="0 0 172 56" fill="none" xmlns="http://www.w3.org/2000/svg">
<rect x="0.5" y="0.5" width="171" height="55" rx="3.5" stroke="white"/>
<path d="M26 16.719V41.2815C26.0002 41.3348 26.0161 41.3868 26.0457 41.4311C26.0753 41.4754 26.1174 41.51 26.1666 41.5305C26.2158 41.551 26.2699 41.5565 26.3222 41.5463C26.3745 41.5362 26.4227 41.5108 26.4606 41.4734L39.25 29.0009L26.4606 16.5271C26.4227 16.4897 26.3745 16.4643 26.3222 16.4542C26.2699 16.444 26.2158 16.4495 26.1666 16.47C26.1174 16.4905 26.0753 16.5251 26.0457 16.5694C26.0161 16.6137 26.0002 16.6657 26 16.719Z" fill="white"/>
<path d="M44.6125 23.8752L28.5762 15.0402L28.5662 15.0346C28.29 14.8846 28.0275 15.2583 28.2537 15.4758L40.8243 27.4958L44.6125 23.8752Z" fill="white"/>
<path d="M28.2544 42.5252C28.0269 42.7427 28.2894 43.1164 28.5669 42.9664L28.5769 42.9608L44.6119 34.1258L40.8238 30.5039L28.2544 42.5252Z" fill="white"/>
<path d="M51.0872 27.4389L46.6091 24.9727L42.3984 29.0014L46.6091 33.0283L51.0872 30.5639C52.3053 29.8908 52.3053 28.112 51.0872 27.4389Z" fill="white"/>
<path d="M71.788 16.548C71.788 14.436 73.264 12.984 75.124 12.984C76.024 12.984 76.852 13.236 77.644 13.728V12.54C76.936 12.132 76.024 11.892 75.076 11.892C72.664 11.892 70.648 13.728 70.648 16.548C70.648 19.356 72.7 21.18 75.052 21.18C76.168 21.18 77.044 20.892 77.884 20.412V16.176H76.816V19.716C76.288 19.98 75.796 20.112 75.064 20.112C73.24 20.112 71.788 18.66 71.788 16.548ZM85.235 17.628C85.235 15.492 83.975 14.364 82.439 14.364C80.759 14.364 79.307 15.684 79.307 17.784C79.307 19.788 80.579 21.144 82.595 21.144C83.435 21.144 84.203 20.904 84.863 20.424V19.332C84.191 19.908 83.423 20.184 82.679 20.184C81.455 20.184 80.543 19.404 80.387 18.12H85.199C85.223 17.976 85.235 17.82 85.235 17.628ZM80.387 17.292C80.555 16.08 81.431 15.324 82.427 15.324C83.315 15.324 84.143 15.948 84.167 17.292H80.387ZM88.1023 12.984H87.0463V14.508H86.0503V15.468H87.0223V18.732C87.0223 20.244 87.9343 21.084 89.3383 21.084C89.6983 21.084 89.9863 21.036 90.1063 21.012V20.052C89.9023 20.088 89.7103 20.112 89.5303 20.112C88.7023 20.112 88.1023 19.692 88.1023 18.684V15.468H89.9623V14.508H88.1023V12.984ZM95.2793 13.02C95.6753 13.02 95.9633 12.732 95.9633 12.348C95.9633 11.964 95.6753 11.676 95.2793 11.676C94.8833 11.676 94.5953 11.964 94.5953 12.348C94.5953 12.732 94.8833 13.02 95.2793 13.02ZM94.7273 21H95.8313V14.508H94.7273V21ZM99.2234 12.984H98.1674V14.508H97.1714V15.468H98.1434V18.732C98.1434 20.244 99.0554 21.084 100.459 21.084C100.819 21.084 101.107 21.036 101.227 21.012V20.052C101.023 20.088 100.831 20.112 100.651 20.112C99.8234 20.112 99.2234 19.692 99.2234 18.684V15.468H101.083V14.508H99.2234V12.984ZM108.644 21.144C110.48 21.144 111.86 19.704 111.86 17.76C111.86 15.804 110.48 14.364 108.644 14.364C106.796 14.364 105.404 15.804 105.404 17.76C105.404 19.716 106.796 21.144 108.644 21.144ZM108.644 20.112C107.552 20.112 106.52 19.26 106.52 17.76C106.52 16.26 107.552 15.396 108.644 15.396C109.724 15.396 110.756 16.26 110.756 17.76C110.756 19.248 109.724 20.112 108.644 20.112ZM116.465 14.364C115.541 14.364 114.845 14.892 114.473 15.492H114.437L114.317 14.508H113.465V21H114.569V17.04C114.569 16.092 115.265 15.42 116.189 15.42C117.161 15.42 117.677 15.96 117.677 17.1V21H118.781V16.704C118.781 15.276 117.869 14.364 116.465 14.364Z" fill="white"/>
<path d="M71.632 43H73.12V38.968H74.592C77.408 38.968 79.2 37.384 79.2 34.968C79.2 32.536 77.36 31.096 74.544 31.096H71.632V43ZM74.672 37.592H73.12V32.488H74.672C76.528 32.488 77.696 33.384 77.696 35C77.696 36.632 76.528 37.592 74.672 37.592ZM81.1729 43H82.6449V30.2H81.1729V43ZM88.7356 43.192C89.9836 43.192 91.1676 42.584 91.8236 41.416L91.9996 43H93.1996V34.344H91.9996L91.8236 35.944C91.1676 34.776 89.9836 34.152 88.7356 34.152C86.7036 34.152 84.7996 35.912 84.7996 38.68C84.7996 41.416 86.7036 43.192 88.7356 43.192ZM89.0396 41.816C87.4876 41.816 86.2876 40.536 86.2876 38.68C86.2876 36.808 87.4876 35.528 89.0396 35.528C90.5596 35.528 91.7756 36.808 91.7756 38.664C91.7756 40.536 90.5596 41.816 89.0396 41.816ZM102.851 34.344H101.315L98.9309 40.936H98.8989L96.5149 34.344H94.9149L98.1469 42.696L96.6589 46.36H98.1629L102.851 34.344ZM112.004 30.84C109.908 30.84 108.243 32.024 108.243 34.088C108.243 35.976 109.652 36.696 111.396 37.48C113.06 38.232 113.94 38.776 113.94 39.88C113.94 41.16 112.788 41.864 111.46 41.864C110.26 41.864 109.012 41.32 108.196 40.488V42.152C108.916 42.712 110.132 43.256 111.524 43.256C113.684 43.256 115.476 41.976 115.476 39.8C115.476 37.848 114.02 37.08 112.212 36.28C110.58 35.544 109.748 35.048 109.748 34.008C109.748 32.824 110.804 32.232 112.02 32.232C112.948 32.232 114.004 32.568 114.836 33.16V31.624C114.132 31.192 113.108 30.84 112.004 30.84ZM119.324 32.312H117.916V34.344H116.588V35.624H117.884V39.976C117.884 41.992 119.1 43.112 120.972 43.112C121.452 43.112 121.836 43.048 121.996 43.016V41.736C121.724 41.784 121.468 41.816 121.228 41.816C120.124 41.816 119.324 41.256 119.324 39.912V35.624H121.804V34.344H119.324V32.312ZM127.432 43.192C129.88 43.192 131.72 41.272 131.72 38.68C131.72 36.072 129.88 34.152 127.432 34.152C124.968 34.152 123.112 36.072 123.112 38.68C123.112 41.288 124.968 43.192 127.432 43.192ZM127.432 41.816C125.976 41.816 124.6 40.68 124.6 38.68C124.6 36.68 125.976 35.528 127.432 35.528C128.872 35.528 130.248 36.68 130.248 38.68C130.248 40.664 128.872 41.816 127.432 41.816ZM133.86 43H135.332V38.072C135.332 36.376 136.5 35.64 137.652 35.64C137.86 35.64 138.068 35.672 138.26 35.704V34.296C138.084 34.264 137.908 34.248 137.684 34.248C136.916 34.248 135.796 34.6 135.204 35.72H135.188L135.028 34.344H133.86V43ZM146.938 38.504C146.938 35.656 145.258 34.152 143.21 34.152C140.97 34.152 139.034 35.912 139.034 38.712C139.034 41.384 140.73 43.192 143.418 43.192C144.538 43.192 145.562 42.872 146.442 42.232V40.776C145.546 41.544 144.522 41.912 143.53 41.912C141.898 41.912 140.682 40.872 140.474 39.16H146.89C146.922 38.968 146.938 38.76 146.938 38.504ZM140.474 38.056C140.698 36.44 141.866 35.432 143.194 35.432C144.378 35.432 145.482 36.264 145.514 38.056H140.474Z" fill="white"/>
</svg>
