<svg width="127" height="36" viewBox="0 0 127 36" fill="none" xmlns="http://www.w3.org/2000/svg">
<g clip-path="url(#clip0)">
<path d="M11.2322 16.7329V13.2084C9.8613 13.1313 8.52664 12.8467 7.24939 12.3594C6.87802 13.7025 6.65658 15.1851 6.60156 16.7329H11.2322Z" fill="white"/>
<path d="M11.2322 21.7901V18.2656H6.60156C6.65658 19.8134 6.87802 21.296 7.24939 22.6391C8.52664 22.1517 9.8613 21.8671 11.2322 21.7901Z" fill="white"/>
<path d="M7.73047 10.9082C8.84032 11.3375 10.0179 11.5968 11.2318 11.6739V6.76953C9.54903 7.27338 8.37449 9.26765 7.73047 10.9082Z" fill="white"/>
<path d="M16.267 24.0899C15.1571 23.6606 13.9795 23.4013 12.7656 23.3242V28.2285C14.4485 27.7247 15.623 25.7304 16.267 24.0899Z" fill="white"/>
<path d="M5.0699 16.7355C5.129 14.9652 5.39236 13.2644 5.83898 11.7286C4.76847 11.1714 3.78335 10.4734 2.89658 9.64453C1.17304 11.6353 0.164398 14.1043 0 16.7355H5.0699Z" fill="white"/>
<path d="M18.9331 18.2656C18.874 20.0359 18.6107 21.7367 18.1641 23.2725C19.2346 23.8297 20.2197 24.5277 21.1065 25.3565C22.83 23.3658 23.8386 20.8968 24.003 18.2656H18.9331Z" fill="white"/>
<path d="M5.0699 18.2656H0C0.164398 20.8968 1.17304 23.3658 2.89658 25.3565C3.78335 24.5277 4.76847 23.8297 5.83898 23.2725C5.39236 21.7367 5.129 20.0359 5.0699 18.2656Z" fill="white"/>
<path d="M11.2357 28.2285V23.3242C10.0218 23.4013 8.84422 23.6605 7.73438 24.0899C8.37938 25.7331 9.55416 27.7251 11.2357 28.2285Z" fill="white"/>
<path d="M17.6596 24.7422C16.9355 26.5559 15.7577 28.4473 14.0469 29.3557C16.2698 28.9768 18.3322 27.9814 20.0301 26.4545C19.3045 25.7803 18.5088 25.2072 17.6596 24.7422Z" fill="white"/>
<path d="M6.33928 24.7422C5.49006 25.2072 4.69432 25.7803 3.96875 26.4545C5.66666 27.9814 7.7291 28.9768 9.95199 29.3557C8.24088 28.4471 7.06315 26.5555 6.33928 24.7422Z" fill="white"/>
<path d="M6.33928 10.2619C7.06334 8.44822 8.24112 6.55685 9.95199 5.64844C7.7291 6.02737 5.66666 7.02272 3.96875 8.54967C4.69436 9.22388 5.49006 9.79692 6.33928 10.2619Z" fill="white"/>
<path d="M12.7656 18.2656V21.7901C14.1365 21.8672 15.4712 22.1517 16.7484 22.6391C17.1198 21.296 17.3412 19.8134 17.3963 18.2656H12.7656Z" fill="white"/>
<path d="M18.1641 11.7286C18.6107 13.2644 18.874 14.9652 18.9331 16.7355H24.003C23.8386 14.1043 22.83 11.6353 21.1065 9.64453C20.2197 10.4734 19.2346 11.1713 18.1641 11.7286Z" fill="white"/>
<path d="M12.7656 13.2084V16.7329H17.3963C17.3412 15.1851 17.1198 13.7025 16.7484 12.3594C15.4712 12.8467 14.1365 13.1314 12.7656 13.2084Z" fill="white"/>
<path d="M12.7656 6.76953V11.6738C13.9796 11.5968 15.1571 11.3375 16.267 10.9081C15.622 9.26498 14.4472 7.27301 12.7656 6.76953Z" fill="white"/>
<path d="M14.0469 5.64844C15.758 6.55699 16.9357 8.4486 17.6596 10.2619C18.5088 9.79692 19.3046 9.22383 20.0301 8.54962C18.3322 7.02277 16.2698 6.02737 14.0469 5.64844Z" fill="white"/>
</g>
<path d="M40.208 17.584H42.944V19.584C42.256 20.08 41.36 20.368 40.528 20.368C38.48 20.368 36.752 18.608 36.752 16.496C36.752 14.4 38.48 12.64 40.528 12.64C41.6 12.64 42.784 13.12 43.472 13.92L44.896 12.592C43.84 11.488 42.128 10.816 40.528 10.816C37.376 10.816 34.72 13.408 34.72 16.496C34.72 19.584 37.376 22.192 40.528 22.192C42.128 22.192 43.84 21.504 44.896 20.4V15.952H40.208V17.584ZM51.0186 20.464C49.8346 20.464 48.9706 19.664 48.7306 18.528H54.9706C54.9706 15.472 53.4826 13.536 50.9226 13.536C48.5706 13.536 46.7146 15.36 46.7146 17.84C46.7146 20.384 48.6666 22.192 51.0346 22.192C52.2346 22.192 53.6746 21.68 54.3946 20.912L53.1626 19.632C52.6986 20.112 51.7866 20.464 51.0186 20.464ZM51.0026 15.264C52.1706 15.264 52.8746 16 53.0986 17.04H48.7466C49.0346 15.952 49.9146 15.264 51.0026 15.264ZM60.9906 20.224C60.8146 20.4 60.5106 20.528 60.1746 20.528C59.7106 20.528 59.3586 20.128 59.3586 19.568V15.344H61.2306V13.728H59.3586V11.456H57.4546V13.728H56.2546V15.344H57.4546V19.808C57.4546 21.2 58.4146 22.192 59.7906 22.192C60.4146 22.192 61.0866 21.936 61.5506 21.536L60.9906 20.224ZM72.125 22.176C74.749 22.176 76.253 20.784 76.253 18.816C76.253 16.816 74.717 16.08 72.429 15.568C70.685 15.168 69.869 14.848 69.869 13.952C69.869 13.184 70.621 12.512 71.725 12.512C72.813 12.512 73.917 12.976 74.877 13.808L75.965 12.336C74.861 11.392 73.549 10.8 71.805 10.8C69.485 10.8 67.853 12.208 67.853 14.128C67.853 16.192 69.437 16.848 71.709 17.376C73.469 17.792 74.253 18.096 74.253 19.008C74.253 19.792 73.549 20.464 72.189 20.464C70.749 20.464 69.581 19.888 68.573 18.976L67.421 20.4C68.637 21.536 70.237 22.176 72.125 22.176ZM82.3406 20.224C82.1646 20.4 81.8606 20.528 81.5246 20.528C81.0606 20.528 80.7086 20.128 80.7086 19.568V15.344H82.5806V13.728H80.7086V11.456H78.8046V13.728H77.6046V15.344H78.8046V19.808C78.8046 21.2 79.7646 22.192 81.1406 22.192C81.7646 22.192 82.4366 21.936 82.9006 21.536L82.3406 20.224ZM88.2158 13.536C87.1758 13.536 86.0878 13.824 84.9198 14.4L85.5918 15.76C86.2958 15.408 87.0478 15.136 87.8318 15.136C89.3358 15.136 89.8638 16.064 89.8638 17.024V17.248C89.1118 16.96 88.2958 16.8 87.5438 16.8C85.6878 16.8 84.1678 17.92 84.1678 19.552C84.1678 21.152 85.4958 22.192 87.2558 22.192C88.2158 22.192 89.2558 21.776 89.8638 21.008V22H91.7678V17.024C91.7678 14.928 90.4078 13.536 88.2158 13.536ZM87.6878 20.768C86.7598 20.768 86.0718 20.272 86.0718 19.488C86.0718 18.704 86.8558 18.16 87.8318 18.16C88.5678 18.16 89.2558 18.272 89.8638 18.48V19.408C89.6398 20.288 88.6318 20.768 87.6878 20.768ZM96.0814 15.328V13.728H94.1294V22H96.0814V17.824C96.0814 16.256 97.2654 15.2 99.0414 15.2V13.536C97.6814 13.536 96.6094 14.224 96.0814 15.328ZM104.816 20.224C104.64 20.4 104.336 20.528 104 20.528C103.536 20.528 103.184 20.128 103.184 19.568V15.344H105.056V13.728H103.184V11.456H101.28V13.728H100.08V15.344H101.28V19.808C101.28 21.2 102.24 22.192 103.616 22.192C104.24 22.192 104.912 21.936 105.376 21.536L104.816 20.224ZM110.947 20.464C109.763 20.464 108.899 19.664 108.659 18.528H114.899C114.899 15.472 113.411 13.536 110.851 13.536C108.499 13.536 106.643 15.36 106.643 17.84C106.643 20.384 108.595 22.192 110.963 22.192C112.163 22.192 113.603 21.68 114.323 20.912L113.091 19.632C112.627 20.112 111.715 20.464 110.947 20.464ZM110.931 15.264C112.099 15.264 112.803 16 113.027 17.04H108.675C108.963 15.952 109.843 15.264 110.931 15.264ZM123.079 10.816V15.008C122.423 14.08 121.431 13.536 120.215 13.536C118.023 13.536 116.423 15.328 116.423 17.856C116.423 20.4 118.023 22.192 120.215 22.192C121.431 22.192 122.423 21.648 123.079 20.72V22H125.031V10.816H123.079ZM120.743 20.528C119.351 20.528 118.359 19.408 118.359 17.856C118.359 16.304 119.351 15.2 120.743 15.2C122.119 15.2 123.079 16.304 123.079 17.856C123.079 19.408 122.119 20.528 120.743 20.528Z" fill="white"/>
<defs>
<clipPath id="clip0">
<rect width="24" height="24" fill="white" transform="translate(0 5.5)"/>
</clipPath>
</defs>
</svg>
