<svg width="85" height="24" viewBox="0 0 85 24" fill="none" xmlns="http://www.w3.org/2000/svg">
<path d="M21.9408 4.02651C23.104 4.02651 23.9988 3.16156 23.9988 2.02817C23.9988 0.864955 23.104 0 21.9408 0C20.7776 0 19.8828 0.864955 19.8828 2.02817C19.8828 3.16156 20.7776 4.02651 21.9408 4.02651ZM20.1811 22.6731C20.1811 23.1149 20.5392 23.4731 20.9811 23.4731H22.9005C23.3424 23.4731 23.7005 23.1149 23.7005 22.6731V7.98807C23.7005 7.54624 23.3424 7.18807 22.9005 7.18807H20.9811C20.5392 7.18807 20.1811 7.54624 20.1811 7.98807V22.6731Z" fill="white"/>
<path d="M36.5068 6.80033C34.2551 6.80033 32.5037 8.06588 31.5742 9.57373C31.5627 9.59253 31.5422 9.60397 31.5202 9.60397C31.4891 9.60397 31.4626 9.58142 31.4577 9.55075L31.1866 7.86129C31.1243 7.47337 30.7896 7.18807 30.3967 7.18807H29.1643C28.7225 7.18807 28.3643 7.54624 28.3643 7.98807V22.6731C28.3643 23.1149 28.7225 23.4731 29.1643 23.4731H31.0838C31.5256 23.4731 31.8838 23.1149 31.8838 22.6731V13.6305C31.8838 11.5725 33.4348 10.0812 35.4629 10.0812C37.6402 10.0812 38.7736 11.2742 38.7736 13.7796V22.6731C38.7736 23.1149 39.1318 23.4731 39.5736 23.4731H41.4931C41.9349 23.4731 42.2931 23.1149 42.2931 22.6731V12.6462C42.2931 9.06711 40.0561 6.80033 36.5068 6.80033Z" fill="white"/>
<path d="M21.9039 4.32477C23.1267 4.32477 24.0812 3.40016 24.0812 2.1773C24.0812 0.924606 23.1267 0 21.9039 0C20.681 0 19.7266 0.924606 19.7266 2.1773C19.7266 3.40016 20.681 4.32477 21.9039 4.32477Z" fill="white"/>
<path d="M58.7955 8.56794C59.1488 8.03622 58.7676 7.32524 58.1292 7.32524H47.1784C46.7366 7.32524 46.3784 7.68341 46.3784 8.12524V9.74645C46.3784 10.1883 46.7366 10.5464 47.1784 10.5464H52.5191C53.158 10.5464 53.5391 11.2586 53.1847 11.7902L46.1339 22.3665C45.7794 22.8981 46.1605 23.6102 46.7995 23.6102H57.9562C58.398 23.6102 58.7562 23.2521 58.7562 22.8102V21.189C58.7562 20.7472 58.398 20.389 57.9562 20.389H52.4338C51.7954 20.389 51.4142 19.678 51.7674 19.1463L58.7955 8.56794Z" fill="white"/>
<path d="M68.6209 23.998C70.2405 23.998 71.7226 23.4484 72.8714 22.4704C73.4149 22.0078 74.4584 22.2552 74.5562 22.9622C74.6075 23.3336 74.925 23.6102 75.3 23.6102H76.7687C77.2106 23.6102 77.5687 23.2521 77.5687 22.8102V8.12524C77.5687 7.68341 77.2106 7.32524 76.7687 7.32524H75.3C74.925 7.32524 74.6075 7.60186 74.5562 7.9733C74.4584 8.68024 73.4149 8.92771 72.8714 8.46511C71.7226 7.48712 70.2405 6.9375 68.6209 6.9375C64.8927 6.9375 61.3136 10.3078 61.3136 15.4976C61.3136 20.6276 64.8927 23.998 68.6209 23.998ZM69.5157 20.7768C66.8612 20.7768 64.833 18.5995 64.833 15.4677C64.833 12.3658 66.8612 10.1587 69.5157 10.1587C72.1106 10.1587 74.1387 12.3658 74.1387 15.4677C74.1387 18.5995 72.1106 20.7768 69.5157 20.7768Z" fill="white"/>
<path d="M82.1695 22.5201C83.3924 22.5201 84.3468 21.5955 84.3468 20.3726C84.3468 19.1199 83.3924 18.1953 82.1695 18.1953C80.9466 18.1953 79.9922 19.1199 79.9922 20.3726C79.9922 21.5955 80.9466 22.5201 82.1695 22.5201Z" fill="white"/>
<path fill-rule="evenodd" clip-rule="evenodd" d="M2.92763 8.33203H14.5068C15.1749 8.33203 15.5487 9.10245 15.1352 9.62718L13.4586 11.7548C13.3069 11.9473 13.0753 12.0597 12.8302 12.0597L3.72763 12.0597V22.8105C3.72763 23.2524 3.36946 23.6105 2.92763 23.6105H0.8C0.358172 23.6105 0 23.2524 0 22.8105V11.2597V9.13203V9.13203C0 8.6902 0.358172 8.33203 0.8 8.33203H2.92763Z" fill="white"/>
<path d="M14.507 0.562501C15.175 0.562501 15.5488 1.33286 15.1354 1.8576L13.4586 3.98585C13.3069 4.17838 13.0753 4.29075 12.8302 4.29075L0.799999 4.29075C0.358171 4.29075 1.85028e-08 3.93258 4.13273e-08 3.49075L1.51271e-07 1.3625C1.74095e-07 0.920672 0.358172 0.5625 0.8 0.5625L14.507 0.562501Z" fill="white"/>
</svg>
