<svg width="76" height="27" viewBox="0 0 76 27" fill="none" xmlns="http://www.w3.org/2000/svg">
<path d="M17.1857 2.63415V3.71086H0.730469L14.6706 0.699999C14.71 0.690181 14.7494 0.681452 14.7911 0.672725C14.9168 0.648579 15.0444 0.636527 15.1724 0.636729C15.3747 0.636088 15.5758 0.666632 15.7686 0.727273C15.7993 0.736 15.83 0.745818 15.8618 0.757817C16.2208 0.887446 16.5352 1.1163 16.7681 1.41753C17.0011 1.71877 17.1429 2.07989 17.1769 2.45851C17.1832 2.51684 17.1862 2.57549 17.1857 2.63415Z" fill="#BFC4D5"/>
<path d="M22.1113 4.51563C22.0807 4.50399 22.0496 4.49381 22.0182 4.48509C21.8253 4.42444 21.6242 4.3939 21.422 4.39454H2.88672L19.1491 9.83699C19.1958 9.85081 19.2422 9.86608 19.2882 9.88281C19.6993 10.0331 20.0662 10.2832 20.3556 10.6104C20.571 10.8505 20.7418 11.1268 20.8598 11.4264C20.9811 11.7355 21.0436 12.0644 21.0439 12.3962V22.5775C21.1685 22.6017 21.2951 22.6137 21.422 22.6135C21.9518 22.6135 22.46 22.404 22.8347 22.031C23.2094 21.6581 23.4198 21.1522 23.4198 20.6248V6.21742C23.3867 5.83931 23.246 5.47844 23.0143 5.17705C22.7825 4.87566 22.4693 4.64623 22.1113 4.51563ZM21.5765 7.67921H21.057V8.20283C21.057 8.32609 21.0079 8.44429 20.9203 8.53144C20.8328 8.6186 20.714 8.66756 20.5902 8.66756C20.4664 8.66756 20.3476 8.6186 20.26 8.53144C20.1725 8.44429 20.1233 8.32609 20.1233 8.20283V7.67921H19.5994C19.5381 7.67936 19.4774 7.66748 19.4207 7.64426C19.364 7.62103 19.3125 7.58692 19.269 7.54387C19.2256 7.50081 19.1911 7.44967 19.1675 7.39334C19.1439 7.33701 19.1317 7.27661 19.1315 7.21558C19.1313 7.1547 19.1433 7.09439 19.1669 7.03819C19.1904 6.98199 19.225 6.93104 19.2685 6.88832C19.3555 6.801 19.4738 6.75158 19.5973 6.75087H20.1211V6.22942C20.1211 6.10625 20.1701 5.9881 20.2574 5.90081C20.3447 5.81351 20.4631 5.76418 20.5869 5.7636C20.7109 5.76389 20.8298 5.81306 20.9175 5.90036C21.0052 5.98765 21.0545 6.10596 21.0548 6.22942V6.75087H21.5787C21.7025 6.75087 21.8212 6.79983 21.9088 6.88698C21.9964 6.97413 22.0456 7.09233 22.0456 7.21558C22.0456 7.33883 21.9964 7.45704 21.9088 7.54419C21.8212 7.63134 21.7025 7.6803 21.5787 7.6803L21.5765 7.67921Z" fill="#BFC4D5"/>
<path d="M20.355 12.3986V24.238C20.3547 24.5477 20.2819 24.853 20.1422 25.1298C20.0026 25.4065 19.8 25.647 19.5506 25.8322C19.3012 26.0173 19.0118 26.142 18.7055 26.1962C18.3992 26.2505 18.0845 26.2329 17.7862 26.1449L17.6404 26.0958L0.730469 20.4384V4.40234L18.9457 10.4982C18.9772 10.5069 19.0083 10.5171 19.0388 10.5288C19.2982 10.6237 19.5351 10.7709 19.7347 10.961C19.9344 11.1511 20.0926 11.3802 20.1994 11.6339C20.3024 11.8757 20.3553 12.1358 20.355 12.3986Z" fill="#BFC4D5"/>
<path d="M20.355 12.3986V24.238C20.3547 24.5477 20.2819 24.853 20.1422 25.1298C20.0026 25.4065 19.8 25.647 19.5506 25.8322C19.3012 26.0173 19.0118 26.142 18.7055 26.1962C18.3992 26.2505 18.0845 26.2329 17.7862 26.1449L17.6404 26.0958L0.730469 20.4384V4.40234L18.9457 10.4982C18.9772 10.5069 19.0083 10.5171 19.0388 10.5288C19.2982 10.6237 19.5351 10.7709 19.7347 10.961C19.9344 11.1511 20.0926 11.3802 20.1994 11.6339C20.3024 11.8757 20.3553 12.1358 20.355 12.3986Z" fill="#BFC4D5"/>
<path d="M33.6445 24.9346H37.1767V7.66797H33.6445V24.9346ZM46.5095 25.1942C47.4256 25.2161 48.3369 25.0562 49.1903 24.7239C50.0437 24.3917 50.8221 23.8936 51.4801 23.2588C52.1382 22.624 52.6627 21.8651 53.0231 21.0264C53.3835 20.1878 53.5725 19.2861 53.5792 18.374C53.5728 17.462 53.3841 16.5605 53.0241 15.7218C52.6641 14.8832 52.1401 14.1243 51.4825 13.4893C50.8249 12.8543 50.0469 12.356 49.1938 12.0233C48.3408 11.6906 47.4298 11.5302 46.5139 11.5515C45.6001 11.5338 44.6919 11.6967 43.842 12.031C42.992 12.3653 42.2171 12.8642 41.5624 13.4988C40.9076 14.1335 40.3859 14.8912 40.0275 15.728C39.6692 16.5649 39.4813 17.4643 39.4748 18.374C39.4816 19.2831 39.6695 20.1819 40.0277 21.0182C40.386 21.8545 40.9073 22.6118 41.5616 23.2461C42.2159 23.8805 42.9901 24.3793 43.8394 24.7137C44.6888 25.0481 45.5963 25.2114 46.5095 25.1942ZM46.5095 21.9401C46.0436 21.9454 45.5815 21.8558 45.1517 21.6767C44.7219 21.4977 44.3334 21.233 44.0102 20.899C43.6869 20.565 43.4357 20.1687 43.2721 19.7344C43.1084 19.3002 43.0357 18.8372 43.0584 18.374C43.0376 17.9109 43.1117 17.4485 43.2762 17.0148C43.4406 16.5811 43.692 16.1853 44.0151 15.8515C44.3382 15.5177 44.7261 15.2528 45.1553 15.073C45.5845 14.8932 46.046 14.8022 46.5117 14.8057C46.9771 14.8025 47.4384 14.8937 47.8673 15.0736C48.2963 15.2536 48.684 15.5185 49.0068 15.8523C49.3296 16.1861 49.5809 16.5818 49.7452 17.0153C49.9095 17.4488 49.9835 17.9111 49.9627 18.374C49.9859 18.8377 49.9135 19.3012 49.7499 19.736C49.5863 20.1707 49.335 20.5676 49.0115 20.902C48.688 21.2364 48.2991 21.5013 47.8688 21.6804C47.4385 21.8595 46.9759 21.949 46.5095 21.9434V21.9401ZM55.8675 24.9313H59.4007V7.66797H55.8675V24.9313ZM67.6519 25.1942C68.4331 25.2229 69.2105 25.0722 69.9238 24.7536C70.6371 24.435 71.267 23.9572 71.7649 23.3571V24.9313H75.2181V11.8144H71.7638V13.4126C71.2656 12.8113 70.6362 12.3309 69.9235 12.008C69.2108 11.6852 68.4335 11.5283 67.6508 11.5494C64.0124 11.5494 61.6934 14.5929 61.6934 18.3718C61.6934 22.1506 64.0135 25.1942 67.6519 25.1942ZM68.5484 21.9401C68.0936 21.9346 67.6449 21.8362 67.23 21.651C66.815 21.4658 66.4428 21.1977 66.1362 20.8633C65.8297 20.5289 65.5955 20.1354 65.4481 19.7072C65.3006 19.279 65.2432 18.8252 65.2792 18.374C65.2451 17.923 65.3039 17.4699 65.4521 17.0424C65.6002 16.6149 65.8345 16.2221 66.1406 15.8879C66.4467 15.5538 66.8182 15.2855 67.2322 15.0993C67.6463 14.9132 68.0941 14.8133 68.5484 14.8057C68.9934 14.8242 69.43 14.9326 69.8317 15.1242C70.2334 15.3159 70.5918 15.5867 70.8851 15.9205C71.1785 16.2542 71.4006 16.6437 71.5381 17.0655C71.6755 17.4872 71.7255 17.9324 71.6849 18.374C71.7307 18.8166 71.6844 19.2638 71.5489 19.6878C71.4134 20.1118 71.1916 20.5035 70.8973 20.8384C70.603 21.1733 70.2426 21.4443 69.8384 21.6344C69.4343 21.8245 68.9951 21.9297 68.5484 21.9434V21.9401Z" fill="#BFC4D5"/>
</svg>
