<svg width="137" height="21" viewBox="0 0 137 21" fill="none" xmlns="http://www.w3.org/2000/svg">
<path d="M0 16.0303H4.05489V10.3369C4.05489 6.80897 5.78205 5.23809 9.29665 5.23809V0.910526C5.96397 0.910526 4.41873 2.83704 3.99461 4.05229V1.20616H0V16.0303ZM19.2388 16.3259C21.2364 16.3359 23.1942 15.7695 24.8751 14.695L23.3594 11.8489C22.1341 12.6131 20.7155 13.0142 19.2695 13.0052C18.3208 13.0826 17.3755 12.8206 16.6035 12.2663C15.8315 11.712 15.2835 10.9018 15.0579 9.98128H26.0543C26.1107 9.51057 26.1411 9.03714 26.1453 8.56312C26.1693 7.57898 25.9976 6.59982 25.64 5.68197C25.2825 4.76412 24.7462 3.92569 24.062 3.2149C23.3778 2.50411 22.5591 1.93498 21.6531 1.54026C20.7471 1.14554 19.7717 0.933006 18.7829 0.91489C17.7563 0.897166 16.7365 1.08364 15.7833 1.46339C14.83 1.84313 13.9626 2.4085 13.2317 3.12634C12.5009 3.84418 11.9214 4.70005 11.5272 5.64375C11.133 6.58746 10.932 7.60001 10.9361 8.62203C10.9372 13.5092 14.8157 16.3259 19.2388 16.3259ZM14.9976 7.3435C15.1493 6.48115 15.5984 5.69846 16.2676 5.13034C16.9367 4.56221 17.784 4.24423 18.6634 4.2312C19.5503 4.21652 20.4121 4.52465 21.0869 5.09773C21.7617 5.6708 22.2031 6.46939 22.3282 7.3435H14.9976ZM28.8138 16.0303H32.8687V8.5293C32.8687 6.27661 34.232 4.67519 36.266 4.67519C38.3264 4.67519 38.9017 5.83153 38.9017 7.99476V16.0303H42.9566V7.49186C42.9566 3.43048 41.5626 0.910526 37.5636 0.910526C36.6394 0.874751 35.7204 1.0639 34.8862 1.46158C34.0521 1.85926 33.328 2.45346 32.7766 3.19267V1.20616H28.8138V16.0303ZM52.2335 16.3259C53.1278 16.3602 54.0181 16.1914 54.8371 15.8323C55.656 15.4732 56.3821 14.9332 56.9602 14.2532V16.0303H60.9296V1.20725H56.9591V3.01594C56.3808 2.33407 55.6556 1.79076 54.8372 1.42643C54.0189 1.06211 53.1285 0.886136 52.2324 0.911617C48.0515 0.911617 45.3852 4.3501 45.3852 8.61875C45.3852 12.8874 48.0526 16.3259 52.2335 16.3259ZM53.2637 12.6496C52.7451 12.6481 52.2324 12.5404 51.7575 12.3332C51.2826 12.1259 50.8557 11.8236 50.5032 11.4449C50.1508 11.0663 49.8805 10.6195 49.7091 10.1323C49.5376 9.64515 49.4688 9.12808 49.5069 8.6133C49.4713 8.09905 49.5418 7.58299 49.7141 7.09689C49.8864 6.6108 50.1569 6.16496 50.5088 5.78683C50.8608 5.40871 51.2867 5.1063 51.7605 4.89823C52.2343 4.69017 52.7459 4.58085 53.2637 4.57701C53.7714 4.59232 54.2707 4.71063 54.7309 4.92469C55.1911 5.13875 55.6025 5.44406 55.9401 5.82192C56.2776 6.19978 56.5341 6.64224 56.6939 7.12221C56.8537 7.60219 56.9133 8.10957 56.8693 8.6133C56.8693 10.9893 55.3547 12.6485 53.2637 12.6485V12.6496ZM64.019 20.2978H68.0739V14.3394C68.6463 14.9823 69.3528 15.4931 70.144 15.8362C70.9352 16.1793 71.7921 16.3464 72.6548 16.3259C76.8357 16.3259 79.5591 12.8874 79.5591 8.5893C79.5591 4.3501 76.8927 0.911617 72.7118 0.911617C71.8006 0.881971 70.894 1.05229 70.0563 1.41049C69.2186 1.7687 68.4703 2.30601 67.8646 2.98431V1.20616H64.0201L64.019 20.2978ZM71.6553 12.6485C71.1469 12.6355 70.6464 12.5188 70.1851 12.3055C69.7238 12.0923 69.3113 11.787 68.9733 11.4086C68.6353 11.0302 68.3789 10.5868 68.2201 10.1058C68.0612 9.62477 68.0033 9.11642 68.0498 8.61221C68.0034 8.10803 68.0615 7.59975 68.2204 7.11881C68.3793 6.63787 68.6357 6.19451 68.9737 5.81616C69.3117 5.43782 69.724 5.13253 70.1853 4.9192C70.6466 4.70587 71.1469 4.58903 71.6553 4.57592C72.1747 4.57478 72.6886 4.68073 73.1647 4.88711C73.6409 5.09348 74.0689 5.3958 74.4219 5.775C74.7748 6.15421 75.045 6.60208 75.2155 7.09039C75.3859 7.5787 75.4529 8.09686 75.4122 8.61221C75.4529 9.12756 75.3859 9.64572 75.2155 10.134C75.045 10.6223 74.7748 11.0702 74.4219 11.4494C74.0689 11.8286 73.6409 12.1309 73.1647 12.3373C72.6886 12.5437 72.1747 12.6496 71.6553 12.6485ZM88.5916 16.3259C89.4859 16.3602 90.3762 16.1914 91.1952 15.8323C92.0141 15.4732 92.7402 14.9332 93.3183 14.2532V16.0303H97.2888V1.20725H93.3183V3.01594C92.74 2.33407 92.0148 1.79076 91.1964 1.42643C90.3781 1.06211 89.4877 0.886136 88.5916 0.911617C84.4107 0.911617 81.7444 4.3501 81.7444 8.61875C81.7444 12.8874 84.4107 16.3259 88.5916 16.3259ZM89.6174 12.6485C89.0989 12.647 88.5862 12.5393 88.1113 12.3321C87.6363 12.1248 87.2094 11.8225 86.857 11.4438C86.5045 11.0652 86.2342 10.6184 86.0628 10.1312C85.8914 9.64406 85.8225 9.12699 85.8606 8.61221C85.8266 8.09884 85.8982 7.58396 86.0713 7.09915C86.2443 6.61435 86.515 6.16984 86.8668 5.79291C87.2185 5.41598 87.644 5.11457 88.117 4.90717C88.59 4.69977 89.1006 4.59076 89.6174 4.58682C90.1251 4.60214 90.6244 4.72045 91.0846 4.93451C91.5448 5.14857 91.9563 5.45387 92.2938 5.83173C92.6313 6.2096 92.8878 6.65206 93.0476 7.13203C93.2074 7.612 93.2671 8.11939 93.223 8.62312C93.2274 10.9893 91.7128 12.6485 89.6174 12.6485ZM101.923 20.3862C103.27 20.5023 104.617 20.1808 105.764 19.47C106.911 18.7592 107.796 17.6973 108.285 16.4437L115.012 1.20725H110.957L108.2 8.05476C107.871 8.91438 107.23 10.6631 107.23 10.6631C107.23 10.6631 106.682 9.18056 106.23 8.14313L103.171 1.20616H99.0423L105.377 14.3394L105.048 14.9939C104.5 16.1503 103.805 16.7721 101.927 16.7721L101.923 20.3862Z" fill="#BFC4D5"/>
<path d="M136.07 15.0273L118.499 15.0273" stroke="#BFC4D5" stroke-width="3"/>
<path d="M136.07 4.53566L118.499 9.19922" stroke="#BFC4D5" stroke-width="3"/>
</svg>
