<svg width="100" height="28" viewBox="0 0 100 28" fill="none" xmlns="http://www.w3.org/2000/svg">
<path d="M8.37832 27.6765C5.58845 27.8181 2.81262 27.1996 0.349654 25.8875V21.1312C1.4337 21.8133 2.61278 22.3327 3.84891 22.6726C5.24391 23.0878 6.69217 23.2987 8.14818 23.2988C10.34 23.2988 11.4359 22.7664 11.4359 21.7017C11.4359 21.1927 11.117 20.7988 10.4792 20.5203C10.1622 20.3742 9.83094 20.2608 9.49067 20.1821L8.07694 19.8407L7.25501 19.6301C7.01549 19.5736 6.77917 19.5044 6.54705 19.4229C4.80295 19.0623 3.1632 18.3143 1.75023 17.2345C1.26493 16.7514 0.889302 16.1704 0.648647 15.5306C0.407992 14.8908 0.307906 14.2071 0.355133 13.5255C0.331022 12.6846 0.523382 11.8516 0.913924 11.1056C1.30447 10.3596 1.88021 9.72545 2.58641 9.26341C4.43412 8.12471 6.58885 7.57898 8.7586 7.70017C11.2602 7.59684 13.7397 8.20451 15.9072 9.45214V14.0186C13.8226 12.7497 11.4321 12.0652 8.98874 12.0375C6.95144 12.0375 5.93114 12.5481 5.93114 13.5648C5.93017 13.762 5.99025 13.9547 6.1032 14.1168C6.19396 14.257 6.31031 14.3791 6.44622 14.4768C6.56239 14.5531 6.74431 14.6688 7.00076 14.8182C7.15418 14.8706 7.43912 14.9524 7.84132 15.0659C8.11283 15.1296 8.37802 15.2176 8.63367 15.3288L10.6611 15.7466C12.3892 16.0441 14.0097 16.7848 15.3626 17.8956C15.8785 18.3941 16.2817 18.9964 16.5451 19.6624C16.8086 20.3283 16.9262 21.0426 16.8903 21.7574C16.9008 22.6124 16.6923 23.456 16.2844 24.2086C15.8766 24.9612 15.2829 25.5979 14.5593 26.0588C12.7192 27.2271 10.5578 27.7929 8.37832 27.6765Z" fill="#BFC4D5"/>
<path d="M50.8076 27.6741C48.0376 27.7511 45.343 26.7703 43.2764 24.9326C42.2631 24.018 41.4639 22.8928 40.9356 21.6368C40.4072 20.3808 40.1626 19.0246 40.2188 17.664C40.1832 16.3616 40.4084 15.0651 40.8812 13.8502C41.354 12.6352 42.0651 11.5261 42.9729 10.5874C43.9044 9.63646 45.0239 8.88822 46.2608 8.39006C47.4977 7.8919 48.825 7.65465 50.1588 7.69331C51.4117 7.64621 52.6588 7.88587 53.8041 8.39386C54.9494 8.90184 55.9623 9.6646 56.7649 10.6234C58.4322 12.6202 59.3146 15.1514 59.2483 17.747V19.1542H45.5691C45.6938 19.7634 45.9467 20.3395 46.311 20.8445C46.6754 21.3495 47.143 21.772 47.6831 22.0843C48.9816 22.812 50.4571 23.1681 51.9462 23.113C54.0977 23.103 56.2079 22.5248 58.0614 21.4374V25.7388C55.9215 27.1569 53.3731 27.8368 50.8076 27.6741ZM45.5691 15.7288H53.9463C53.9267 14.704 53.5092 13.7266 52.7813 13.0016C52.4052 12.6379 51.9585 12.3542 51.4686 12.168C50.9787 11.9818 50.4559 11.8968 49.9319 11.9183C48.8405 11.8824 47.7757 12.2584 46.951 12.971C46.1552 13.6802 45.6626 14.6659 45.5746 15.7255L45.5691 15.7288Z" fill="#BFC4D5"/>
<path d="M66.9449 27.6784C65.5826 27.7573 64.2439 27.2987 63.2188 26.4021C62.7318 25.8669 62.36 25.238 62.1265 24.5544C61.893 23.8707 61.8026 23.1466 61.861 22.4268V0.546875H67.2518V21.0174C67.2518 22.2887 67.8253 22.9236 68.9724 22.9221C69.454 22.9361 69.9304 22.8188 70.3499 22.5828V26.9966C69.2842 27.4854 68.1188 27.7203 66.946 27.6828L66.9449 27.6784Z" fill="#BFC4D5"/>
<path d="M73.6666 21.2873V12.6857H69.9219V8.19774H73.6666V2.98438H79.0574V8.19774H84.4854V12.6857H79.0574V20.2226C78.9908 20.9533 79.2094 21.6815 79.6678 22.256C79.9395 22.4884 80.2555 22.6637 80.5969 22.7717C80.9383 22.8797 81.2981 22.918 81.6547 22.8844C82.6261 22.8772 83.5822 22.6429 84.446 22.2004V26.6512C83.054 27.4043 81.4802 27.7603 79.8979 27.6799C75.7437 27.6799 73.6666 25.5491 73.6666 21.2873Z" fill="#BFC4D5"/>
<path d="M92.5769 27.183H87.1992V8.19493H92.5769V11.3912C93.2289 10.312 94.1515 9.41996 95.2542 8.80255C96.4496 8.08125 97.8203 7.6991 99.2182 7.69748C99.4232 7.6897 99.6285 7.70286 99.8308 7.73675V12.9981C99.2795 12.8669 98.7143 12.8032 98.1475 12.8083C96.9372 12.7974 95.7495 13.1345 94.7271 13.7792C93.7923 14.3236 93.0429 15.1345 92.5758 16.1072L92.5769 27.183Z" fill="#BFC4D5"/>
<path d="M24.7735 6.09102V0.582031L19.375 3.56234V9.08661L24.7735 6.09102Z" fill="#BFC4D5"/>
<path d="M27.8442 8.31485L20.4589 12.097C20.1346 12.2607 19.8618 12.5102 19.6706 12.8181C19.4794 13.126 19.3771 13.4804 19.375 13.8424V27.184H24.7735V15.0827H32.3715V27.184H38.1119V13.8424C38.1117 13.4816 38.0117 13.1279 37.8228 12.82C37.6339 12.5121 37.3635 12.2619 37.0412 12.097L29.6547 8.31485C29.3745 8.1721 29.0642 8.09766 28.7495 8.09766C28.4347 8.09766 28.1244 8.1721 27.8442 8.31485Z" fill="#BFC4D5"/>
</svg>
