<svg width="192" height="39" viewBox="0 0 192 39" fill="none" xmlns="http://www.w3.org/2000/svg">
<path d="M45.2498 33.0634C44.958 33.3536 44.5623 33.5165 44.1499 33.5165C43.7375 33.5165 43.342 33.3536 43.0502 33.0634L35.0631 25.1131C35.0379 25.088 35.0118 25.0607 34.9877 25.0335C33.3775 26.2814 31.5112 27.1614 29.5212 27.6111C30.0431 26.4777 30.3961 25.2746 30.569 24.0396C32.1941 23.3706 33.632 22.3196 34.76 20.9766C35.8879 19.6335 36.6723 18.0384 37.0457 16.3278C37.4191 14.6171 37.3706 12.8419 36.9042 11.154C36.4378 9.46617 35.5675 7.91596 34.3677 6.63601C33.168 5.35606 31.6744 4.38448 30.0151 3.80452C28.3558 3.22455 26.5803 3.05344 24.84 3.30581C23.0998 3.55818 21.4467 4.2265 20.0226 5.25362C18.5986 6.28074 17.4459 7.63608 16.6629 9.20357C15.4125 9.28986 14.1811 9.55659 13.0078 9.9955C13.6065 8.02187 14.6378 6.20514 16.0272 4.67622C17.4166 3.14729 19.1294 1.94422 21.0423 1.15399C22.9552 0.363766 25.0207 0.00596324 27.0894 0.106383C29.158 0.206803 31.1784 0.762969 33.0051 1.73473C34.8317 2.70649 36.4189 4.06972 37.6523 5.72596C38.8856 7.3822 39.7342 9.29026 40.1371 11.3125C40.54 13.3348 40.4869 15.4207 39.9819 17.4201C39.4769 19.4195 38.5325 21.2825 37.2167 22.8746L37.2627 22.9193L45.2498 30.8697C45.3945 31.0136 45.5092 31.1845 45.5875 31.3727C45.6658 31.5608 45.706 31.7624 45.706 31.966C45.706 32.1697 45.6658 32.3713 45.5875 32.5594C45.5092 32.7475 45.3945 32.9184 45.2498 33.0624V33.0634Z" fill="#BFC4D5"/>
<path d="M17.5971 10.5793C17.0841 10.5794 16.5717 10.6129 16.063 10.6796C14.8681 10.8349 13.7051 11.1758 12.6163 11.6898C11.052 12.4239 9.67064 13.4945 8.57216 14.8241C7.47367 16.1537 6.68546 17.7094 6.26393 19.379C5.84241 21.0486 5.79824 22.7905 6.1347 24.4791C6.47117 26.1677 7.17984 27.761 8.20962 29.144C8.17674 29.1713 8.14609 29.1986 8.1165 29.2281L1.44656 35.8682C1.29823 36.011 1.18008 36.1819 1.09873 36.3706C1.01738 36.5594 0.974452 36.7625 0.972711 36.9679C0.970971 37.1733 1.01042 37.3769 1.08856 37.567C1.16671 37.7571 1.28194 37.9299 1.42783 38.0751C1.57371 38.2204 1.74737 38.3354 1.93833 38.4133C2.12928 38.4911 2.33371 38.5305 2.54007 38.5288C2.74642 38.5272 2.95051 38.4847 3.1402 38.4038C3.32989 38.3229 3.50153 38.2053 3.64508 38.0577L10.3158 31.4174L10.3728 31.3586C11.8375 32.5055 13.5565 33.2872 15.3863 33.6385C17.2162 33.9898 19.104 33.9004 20.8921 33.378C22.6803 32.8556 24.3168 31.9152 25.6656 30.6352C27.0144 29.3552 28.0363 27.7727 28.6459 26.0197C29.2555 24.2667 29.4353 22.3941 29.1701 20.5579C28.9049 18.7218 28.2027 16.9754 27.1217 15.4644C26.0407 13.9533 24.6125 12.7214 22.9561 11.8714C21.2996 11.0215 19.4629 10.578 17.5993 10.5781L17.5971 10.5793ZM25.7595 24.8427C25.1662 26.6676 23.9728 28.2404 22.3717 29.3078C20.7707 30.3752 18.8553 30.8749 16.9341 30.7263C15.013 30.5777 13.198 29.7896 11.7818 28.4888C10.3656 27.1881 9.43066 25.4507 9.12761 23.5564C8.82455 21.6622 9.17116 19.7215 10.1114 18.0472C11.0517 16.373 12.5307 15.0626 14.3105 14.3274C16.0902 13.5921 18.067 13.4748 19.922 13.9943C21.7769 14.5139 23.402 15.6399 24.5355 17.1911C25.3312 18.2801 25.8569 19.5409 26.0696 20.8707C26.2824 22.2005 26.1761 23.5615 25.7595 24.8427Z" fill="#BFC4D5"/>
<path d="M24.3342 24.6692C23.9482 25.712 23.3238 26.6513 22.5105 27.4128C20.09 26.7113 17.9046 25.3725 16.1847 23.5378C14.4647 21.7031 13.2741 19.4403 12.7383 16.9882C13.5571 16.2325 14.5418 15.6775 15.614 15.3672C15.9 17.6336 16.8968 19.7523 18.4624 21.4223C20.028 23.0924 22.0826 24.2286 24.3342 24.6692Z" fill="#BFC4D5"/>
<path d="M69.7179 20.3254C69.7409 21.0386 69.6048 21.748 69.3192 22.4026C69.0336 23.0572 68.6056 23.6405 68.0662 24.1107C66.772 25.1445 65.1374 25.6615 63.4811 25.5606C62.0977 25.6495 60.72 25.3161 59.532 24.605C58.3439 23.8939 57.4019 22.8389 56.832 21.581L59.8744 20.0232C60.1852 20.7416 60.7055 21.3505 61.3682 21.7709C62.0309 22.1912 62.8051 22.4037 63.5905 22.3806C65.0897 22.3806 66.1759 21.6236 66.1759 20.585C66.1815 20.3476 66.1217 20.1132 66.0028 19.9072C65.884 19.7012 65.7108 19.5315 65.502 19.4166C64.707 18.9597 63.8509 18.6174 62.9594 18.3999C61.4335 18.0475 60.0121 17.3436 58.8093 16.3448C58.3844 15.9413 58.0487 15.4537 57.8241 14.9136C57.5996 14.3736 57.4908 13.7928 57.5049 13.2085C57.4911 12.5069 57.6408 11.8116 57.9424 11.1773C58.244 10.543 58.6894 9.98694 59.2433 9.55282C60.4173 8.57741 61.9085 8.06193 63.4372 8.10305C64.691 8.02034 65.9397 8.32778 67.0102 8.98274C68.0807 9.63769 68.92 10.6077 69.4121 11.7586L66.5002 13.3371C66.2603 12.6926 65.8175 12.1426 65.2379 11.7691C64.6582 11.3956 63.9729 11.2185 63.2839 11.2644C61.8932 11.2644 61.0241 11.979 61.0241 12.9946C61.0241 14.0102 61.8285 14.5306 63.7639 15.0673C67.833 16.2128 69.7179 17.6199 69.7179 20.3254Z" fill="#BFC4D5"/>
<path d="M72.4131 15.234C73.628 14.078 75.2534 13.448 76.9337 13.4819C78.5968 13.4465 80.2064 14.0687 81.4097 15.2121C82.0013 15.752 82.47 16.4114 82.7849 17.1462C83.0998 17.8811 83.2533 18.6744 83.2352 19.4731C83.2549 20.2868 83.1006 21.0954 82.7822 21.8451C82.4638 22.5948 81.9889 23.2685 81.3888 23.8214C80.1758 24.9605 78.5628 25.5815 76.8954 25.5515C75.2292 25.5972 73.6129 24.9824 72.4021 23.8422C71.823 23.2825 71.3632 22.6124 71.0498 21.872C70.7365 21.1316 70.576 20.3359 70.5781 19.5325C70.5803 18.7291 70.7451 17.9345 71.0624 17.1957C71.3797 16.457 71.8431 15.7894 72.4251 15.2328L72.4131 15.234ZM74.8692 21.6363C75.4405 22.1349 76.1832 22.3946 76.9423 22.361C77.7013 22.3273 78.418 22.003 78.9425 21.4558C79.4671 20.9086 79.7591 20.1809 79.7572 19.4245C79.7554 18.6682 79.4601 17.9418 78.9329 17.3971C78.6699 17.1229 78.3524 16.9064 78.0007 16.7612C77.649 16.616 77.2708 16.5454 76.8901 16.5539C76.5127 16.5454 76.1375 16.6161 75.7894 16.7614C75.4412 16.9066 75.1277 17.1232 74.8692 17.3971C74.5964 17.6732 74.3825 18.0014 74.2405 18.3619C74.0985 18.7224 74.0312 19.1078 74.0427 19.4948C74.0307 19.8886 74.0975 20.2809 74.2391 20.6487C74.3808 21.0165 74.5945 21.3527 74.8679 21.6375L74.8692 21.6363Z" fill="#BFC4D5"/>
<path d="M85.846 23.8515C84.9914 22.988 84.4149 21.8903 84.1906 20.6989C83.9663 19.5075 84.1043 18.2766 84.5869 17.1636C85.0694 16.0507 85.8746 15.1064 86.8994 14.4516C87.9242 13.7968 89.1219 13.4613 90.3394 13.488C91.5178 13.4117 92.6892 13.7185 93.6774 14.362C94.6656 15.0055 95.4172 15.951 95.819 17.0563L92.8413 18.289C92.6607 17.7772 92.3214 17.3357 91.8722 17.0285C91.4231 16.7212 90.8874 16.564 90.3426 16.5796C89.5894 16.6205 88.8805 16.9472 88.3619 17.4924C87.8432 18.0376 87.5544 18.7599 87.5544 19.5108C87.5544 20.2617 87.8432 20.9841 88.3619 21.5293C88.8805 22.0745 89.5894 22.4011 90.3426 22.442C90.8976 22.4679 91.4462 22.3158 91.9078 22.0081C92.3694 21.7003 92.7198 21.2532 92.9071 20.7326L95.9054 21.9653C95.4806 23.0792 94.709 24.0287 93.7034 24.6748C92.6978 25.321 91.511 25.6299 90.3164 25.5565C89.4934 25.5859 88.6728 25.4499 87.9038 25.1566C87.1348 24.8633 86.4332 24.4186 85.8407 23.8493L85.846 23.8515Z" fill="#BFC4D5"/>
<path d="M101.084 9.71948C101.084 10.1336 100.962 10.5385 100.731 10.8832C100.501 11.228 100.173 11.4972 99.7893 11.6569C99.4055 11.8166 98.9827 11.8599 98.5743 11.781C98.1659 11.7022 97.7901 11.5047 97.4941 11.2137C97.1982 10.9227 96.9951 10.5511 96.9109 10.1456C96.8266 9.74011 96.8649 9.31887 97.0206 8.93487C97.1763 8.55088 97.4426 8.22133 97.786 7.98767C98.1295 7.75401 98.5345 7.62668 98.9505 7.62173C99.2303 7.61482 99.5089 7.66424 99.7692 7.76688C100.029 7.86952 100.266 8.02328 100.465 8.21911C100.665 8.41494 100.822 8.64884 100.929 8.90664C101.035 9.16444 101.088 9.44082 101.084 9.71948ZM97.2814 25.293V13.7428H100.693V25.293H97.2814Z" fill="#BFC4D5"/>
<path d="M103.434 24.5848C103.064 24.2816 102.769 23.8973 102.573 23.4621C102.377 23.0268 102.285 22.5523 102.304 22.0757V22.0322C102.276 21.4411 102.424 20.855 102.73 20.3472C103.035 19.8395 103.484 19.4325 104.02 19.1772C105.104 18.6871 106.286 18.4501 107.476 18.4845H108.628C109.236 18.4845 109.54 18.2035 109.54 17.6413C109.54 16.8406 108.883 16.2134 107.671 16.2134C107.135 16.1986 106.606 16.3376 106.148 16.6138C105.69 16.89 105.321 17.2919 105.086 17.7711L102.499 16.2351C103.499 14.3969 105.28 13.4883 107.823 13.4883C110.892 13.4883 112.864 15.1104 112.864 18.1387V25.2983H109.735V23.8702L109.692 23.8484C109.302 24.3966 108.778 24.8373 108.17 25.1287C107.562 25.4201 106.889 25.5528 106.215 25.5143C105.207 25.5452 104.22 25.2154 103.435 24.5848H103.434ZM109.518 20.8213V20.5616H107.476C106.498 20.5616 105.716 21.0165 105.716 21.8816C105.716 22.6604 106.324 23.0499 107.193 23.0499C107.497 23.0736 107.802 23.0328 108.089 22.9304C108.376 22.8279 108.638 22.6661 108.858 22.4555C109.077 22.2449 109.25 21.9903 109.363 21.7086C109.477 21.4269 109.529 21.1245 109.516 20.8213H109.518Z" fill="#BFC4D5"/>
<path d="M118.423 25.3046H115.012V7.67578H118.423V25.3046Z" fill="#BFC4D5"/>
<path d="M136.997 20.3254C137.02 21.0386 136.884 21.7481 136.599 22.4026C136.313 23.0572 135.885 23.6406 135.346 24.1107C134.052 25.1447 132.417 25.6617 130.761 25.5606C129.377 25.65 127.999 25.3168 126.81 24.6057C125.622 23.8946 124.679 22.8393 124.109 21.581L127.152 20.0232C127.462 20.7417 127.983 21.3505 128.646 21.7709C129.308 22.1912 130.082 22.4037 130.868 22.3806C132.367 22.3806 133.453 21.6236 133.453 20.585C133.459 20.3476 133.399 20.1131 133.28 19.9071C133.161 19.7011 132.988 19.5315 132.779 19.4167C131.984 18.9598 131.128 18.6174 130.237 18.3999C128.711 18.0475 127.289 17.3436 126.086 16.3448C125.661 15.9413 125.326 15.4539 125.101 14.9138C124.877 14.3737 124.768 13.7929 124.782 13.2085C124.768 12.5069 124.918 11.8116 125.22 11.1773C125.521 10.543 125.966 9.98696 126.52 9.55284C127.695 8.57761 129.186 8.06215 130.715 8.10307C131.969 8.02029 133.217 8.32768 134.288 8.98262C135.358 9.63757 136.198 10.6076 136.69 11.7586L133.779 13.3371C133.539 12.6925 133.096 12.1424 132.516 11.7688C131.937 11.3953 131.251 11.2183 130.562 11.2644C129.171 11.2644 128.302 11.979 128.302 12.9946C128.302 14.0102 129.106 14.5306 131.042 15.0673C135.112 16.2128 136.997 17.62 136.997 20.3254Z" fill="#BFC4D5"/>
<path d="M139.047 24.5848C138.677 24.2815 138.383 23.8973 138.187 23.4621C137.991 23.0269 137.899 22.5523 137.917 22.0757V22.0322C137.89 21.4409 138.038 20.8547 138.344 20.347C138.649 19.8392 139.098 19.4323 139.635 19.1772C140.718 18.6871 141.899 18.4502 143.089 18.4845H144.241C144.849 18.4845 145.154 18.2035 145.154 17.6413C145.154 16.8406 144.501 16.2134 143.285 16.2134C142.749 16.1985 142.22 16.3374 141.762 16.6137C141.303 16.8899 140.934 17.2918 140.699 17.7711L138.113 16.2351C139.113 14.3969 140.895 13.4883 143.438 13.4883C146.506 13.4883 148.479 15.1104 148.479 18.1387V25.2983H145.35V23.8702L145.306 23.8484C144.916 24.3966 144.392 24.8373 143.784 25.1287C143.176 25.4201 142.504 25.5528 141.83 25.5143C140.82 25.5459 139.833 25.2161 139.047 24.5848ZM145.132 20.8213V20.5616H143.089C142.111 20.5616 141.329 21.0165 141.329 21.8816C141.329 22.6604 141.937 23.0499 142.806 23.0499C143.11 23.0736 143.416 23.0328 143.703 22.9304C143.99 22.8279 144.252 22.6661 144.471 22.4555C144.691 22.2449 144.863 21.9903 144.977 21.7086C145.09 21.4269 145.142 21.1245 145.13 20.8213H145.132Z" fill="#BFC4D5"/>
<path d="M158.078 10.6366C157.738 10.5426 157.386 10.4989 157.034 10.5067C156.757 10.4752 156.477 10.5059 156.214 10.5966C155.95 10.6873 155.71 10.8358 155.512 11.0309C155.314 11.226 155.163 11.4629 155.069 11.7241C154.975 11.9853 154.941 12.2642 154.969 12.5402V13.751H158.012V16.6277H154.991V25.3014H151.602V16.6277H149.52V13.751H151.602V12.6045C151.602 9.598 153.21 7.62891 156.491 7.62891C157.029 7.62904 157.564 7.70956 158.079 7.8678L158.078 10.6366Z" fill="#BFC4D5"/>
<path d="M161.582 20.4538C161.69 21.1198 162.044 21.7216 162.575 22.1417C163.105 22.5617 163.774 22.7697 164.45 22.7249C164.962 22.7242 165.466 22.5974 165.917 22.3559C166.368 22.1144 166.753 21.7656 167.035 21.3407L169.491 22.9409C168.998 23.8085 168.265 24.5165 167.379 24.9807C166.492 25.4449 165.491 25.6457 164.493 25.5591C162.816 25.6041 161.188 24.999 159.951 23.8715C159.375 23.3094 158.917 22.639 158.603 21.899C158.29 21.1591 158.127 20.3644 158.125 19.5613C158.123 18.7582 158.281 17.9627 158.591 17.2211C158.9 16.4795 159.355 15.8065 159.928 15.2414C160.496 14.6694 161.173 14.2174 161.92 13.9126C162.667 13.6078 163.469 13.4564 164.276 13.4677C165.047 13.4296 165.817 13.5531 166.537 13.8301C167.257 14.1072 167.911 14.5317 168.456 15.076C169.001 15.6204 169.424 16.2727 169.7 16.9904C169.976 17.7082 170.097 18.4755 170.056 19.2428C170.056 19.7882 170.034 20.1942 170.012 20.4538H161.582ZM166.667 18.2262C166.599 17.6359 166.302 17.0955 165.839 16.7198C165.377 16.3442 164.785 16.1628 164.191 16.2145C163.603 16.2148 163.034 16.4142 162.576 16.7799C162.117 17.1455 161.798 17.6557 161.67 18.2262H166.667Z" fill="#BFC4D5"/>
<path d="M178.513 25.2335C177.998 25.3847 177.464 25.4583 176.927 25.4518C173.907 25.4518 172.324 23.8077 172.324 21.1045V16.6701H170.242V13.7498H172.371V10.1367H175.717V13.7498H178.587V16.6701H175.708V20.6933C175.708 22.0132 176.403 22.5325 177.728 22.5325C177.992 22.5384 178.255 22.5095 178.511 22.4464L178.513 25.2335Z" fill="#BFC4D5"/>
<path d="M178.969 13.75H182.706L185.596 20.3466L188.182 13.75H191.68L184.64 30.9861H181.012L183.861 24.0644L178.969 13.75Z" fill="#BFC4D5"/>
</svg>
