<svg width="125" height="40" viewBox="0 0 125 40" fill="none" xmlns="http://www.w3.org/2000/svg">
<path d="M3 8.71901V33.2815C3.00016 33.3348 3.01606 33.3868 3.04569 33.4311C3.07532 33.4754 3.11737 33.51 3.16656 33.5305C3.21575 33.551 3.2699 33.5565 3.32222 33.5463C3.37453 33.5362 3.42268 33.5108 3.46062 33.4734L16.25 21.0009L3.46062 8.52713C3.42268 8.48972 3.37453 8.46434 3.32222 8.45418C3.2699 8.44402 3.21575 8.44953 3.16656 8.47003C3.11737 8.49052 3.07532 8.52508 3.04569 8.56937C3.01606 8.61366 3.00016 8.66572 3 8.71901Z" fill="#2EC9F7"/>
<path d="M21.6125 15.8752L5.57621 7.04019L5.56621 7.03456C5.28996 6.88456 5.02746 7.25831 5.25371 7.47581L17.8243 19.4958L21.6125 15.8752Z" fill="#41DD71"/>
<path d="M5.25444 34.5252C5.02694 34.7427 5.28944 35.1164 5.56694 34.9664L5.57694 34.9608L21.6119 26.1258L17.8238 22.5039L5.25444 34.5252Z" fill="#E82E49"/>
<path d="M28.0872 19.4389L23.6091 16.9727L19.3984 21.0014L23.6091 25.0283L28.0872 22.5639C29.3053 21.8908 29.3053 20.112 28.0872 19.4389Z" fill="#F5C600"/>
<path d="M48.788 8.548C48.788 6.436 50.264 4.984 52.124 4.984C53.024 4.984 53.852 5.236 54.644 5.728V4.54C53.936 4.132 53.024 3.892 52.076 3.892C49.664 3.892 47.648 5.728 47.648 8.548C47.648 11.356 49.7 13.18 52.052 13.18C53.168 13.18 54.044 12.892 54.884 12.412V8.176H53.816V11.716C53.288 11.98 52.796 12.112 52.064 12.112C50.24 12.112 48.788 10.66 48.788 8.548ZM62.235 9.628C62.235 7.492 60.975 6.364 59.439 6.364C57.759 6.364 56.307 7.684 56.307 9.784C56.307 11.788 57.579 13.144 59.595 13.144C60.435 13.144 61.203 12.904 61.863 12.424V11.332C61.191 11.908 60.423 12.184 59.679 12.184C58.455 12.184 57.543 11.404 57.387 10.12H62.199C62.223 9.976 62.235 9.82 62.235 9.628ZM57.387 9.292C57.555 8.08 58.431 7.324 59.427 7.324C60.315 7.324 61.143 7.948 61.167 9.292H57.387ZM65.1023 4.984H64.0463V6.508H63.0503V7.468H64.0223V10.732C64.0223 12.244 64.9343 13.084 66.3383 13.084C66.6983 13.084 66.9863 13.036 67.1063 13.012V12.052C66.9023 12.088 66.7103 12.112 66.5303 12.112C65.7023 12.112 65.1023 11.692 65.1023 10.684V7.468H66.9623V6.508H65.1023V4.984ZM72.2793 5.02C72.6753 5.02 72.9633 4.732 72.9633 4.348C72.9633 3.964 72.6753 3.676 72.2793 3.676C71.8833 3.676 71.5953 3.964 71.5953 4.348C71.5953 4.732 71.8833 5.02 72.2793 5.02ZM71.7273 13H72.8313V6.508H71.7273V13ZM76.2234 4.984H75.1674V6.508H74.1714V7.468H75.1434V10.732C75.1434 12.244 76.0554 13.084 77.4594 13.084C77.8194 13.084 78.1074 13.036 78.2274 13.012V12.052C78.0234 12.088 77.8314 12.112 77.6514 12.112C76.8234 12.112 76.2234 11.692 76.2234 10.684V7.468H78.0834V6.508H76.2234V4.984ZM85.6444 13.144C87.4804 13.144 88.8604 11.704 88.8604 9.76C88.8604 7.804 87.4804 6.364 85.6444 6.364C83.7964 6.364 82.4044 7.804 82.4044 9.76C82.4044 11.716 83.7964 13.144 85.6444 13.144ZM85.6444 12.112C84.5524 12.112 83.5204 11.26 83.5204 9.76C83.5204 8.26 84.5524 7.396 85.6444 7.396C86.7244 7.396 87.7564 8.26 87.7564 9.76C87.7564 11.248 86.7244 12.112 85.6444 12.112ZM93.465 6.364C92.541 6.364 91.845 6.892 91.473 7.492H91.437L91.317 6.508H90.465V13H91.569V9.04C91.569 8.092 92.265 7.42 93.189 7.42C94.161 7.42 94.677 7.96 94.677 9.1V13H95.781V8.704C95.781 7.276 94.869 6.364 93.465 6.364Z" fill="#0B0B0B"/>
<path d="M48.632 35H50.12V30.968H51.592C54.408 30.968 56.2 29.384 56.2 26.968C56.2 24.536 54.36 23.096 51.544 23.096H48.632V35ZM51.672 29.592H50.12V24.488H51.672C53.528 24.488 54.696 25.384 54.696 27C54.696 28.632 53.528 29.592 51.672 29.592ZM58.1729 35H59.6449V22.2H58.1729V35ZM65.7356 35.192C66.9836 35.192 68.1676 34.584 68.8236 33.416L68.9996 35H70.1996V26.344H68.9996L68.8236 27.944C68.1676 26.776 66.9836 26.152 65.7356 26.152C63.7036 26.152 61.7996 27.912 61.7996 30.68C61.7996 33.416 63.7036 35.192 65.7356 35.192ZM66.0396 33.816C64.4876 33.816 63.2876 32.536 63.2876 30.68C63.2876 28.808 64.4876 27.528 66.0396 27.528C67.5596 27.528 68.7756 28.808 68.7756 30.664C68.7756 32.536 67.5596 33.816 66.0396 33.816ZM79.8509 26.344H78.3149L75.9309 32.936H75.8989L73.5149 26.344H71.9149L75.1469 34.696L73.6589 38.36H75.1629L79.8509 26.344ZM89.0035 22.84C86.9075 22.84 85.2435 24.024 85.2435 26.088C85.2435 27.976 86.6515 28.696 88.3955 29.48C90.0595 30.232 90.9395 30.776 90.9395 31.88C90.9395 33.16 89.7875 33.864 88.4595 33.864C87.2595 33.864 86.0115 33.32 85.1955 32.488V34.152C85.9155 34.712 87.1315 35.256 88.5235 35.256C90.6835 35.256 92.4755 33.976 92.4755 31.8C92.4755 29.848 91.0195 29.08 89.2115 28.28C87.5795 27.544 86.7475 27.048 86.7475 26.008C86.7475 24.824 87.8035 24.232 89.0195 24.232C89.9475 24.232 91.0035 24.568 91.8355 25.16V23.624C91.1315 23.192 90.1075 22.84 89.0035 22.84ZM96.3239 24.312H94.9159V26.344H93.5879V27.624H94.8839V31.976C94.8839 33.992 96.0999 35.112 97.9719 35.112C98.4519 35.112 98.8359 35.048 98.9959 35.016V33.736C98.7239 33.784 98.4679 33.816 98.2279 33.816C97.1239 33.816 96.3239 33.256 96.3239 31.912V27.624H98.8039V26.344H96.3239V24.312ZM104.432 35.192C106.88 35.192 108.72 33.272 108.72 30.68C108.72 28.072 106.88 26.152 104.432 26.152C101.968 26.152 100.112 28.072 100.112 30.68C100.112 33.288 101.968 35.192 104.432 35.192ZM104.432 33.816C102.976 33.816 101.6 32.68 101.6 30.68C101.6 28.68 102.976 27.528 104.432 27.528C105.872 27.528 107.248 28.68 107.248 30.68C107.248 32.664 105.872 33.816 104.432 33.816ZM110.86 35H112.332V30.072C112.332 28.376 113.5 27.64 114.652 27.64C114.86 27.64 115.068 27.672 115.26 27.704V26.296C115.084 26.264 114.908 26.248 114.684 26.248C113.916 26.248 112.796 26.6 112.204 27.72H112.188L112.028 26.344H110.86V35ZM123.938 30.504C123.938 27.656 122.258 26.152 120.21 26.152C117.97 26.152 116.034 27.912 116.034 30.712C116.034 33.384 117.73 35.192 120.418 35.192C121.538 35.192 122.562 34.872 123.442 34.232V32.776C122.546 33.544 121.522 33.912 120.53 33.912C118.898 33.912 117.682 32.872 117.474 31.16H123.89C123.922 30.968 123.938 30.76 123.938 30.504ZM117.474 30.056C117.698 28.44 118.866 27.432 120.194 27.432C121.378 27.432 122.482 28.264 122.514 30.056H117.474Z" fill="#0B0B0B"/>
</svg>
