<svg width="139" height="40" viewBox="0 0 139 40" fill="none" xmlns="http://www.w3.org/2000/svg">
<path d="M26.2189 26.4134C25.8497 27.2741 25.3935 28.0948 24.8576 28.8627C24.1416 29.8854 23.5536 30.5921 23.1029 30.9854C22.4029 31.6281 21.6509 31.9587 20.8469 31.9774C20.2709 31.9774 19.5749 31.8134 18.7642 31.4801C17.9509 31.1481 17.2042 30.9854 16.5202 30.9854C15.8042 30.9854 15.0362 31.1481 14.2136 31.4801C13.3922 31.8134 12.7282 31.9881 12.2202 32.0041C11.4509 32.0374 10.6816 31.6987 9.91489 30.9854C9.42555 30.5587 8.81355 29.8254 8.07889 28.7881C7.29222 27.6827 6.64555 26.3961 6.13889 24.9334C5.59622 23.3507 5.32422 21.8201 5.32422 20.3374C5.32422 18.6401 5.69089 17.1747 6.42555 15.9481C6.98122 14.9847 7.77562 14.1806 8.73222 13.6134C9.67551 13.0476 10.7523 12.743 11.8522 12.7307C12.4656 12.7307 13.2696 12.9201 14.2656 13.2934C15.2616 13.6667 15.9016 13.8561 16.1802 13.8561C16.3909 13.8561 17.0989 13.6334 18.3042 13.1921C19.4416 12.7827 20.4016 12.6134 21.1882 12.6801C23.3216 12.8521 24.9229 13.6921 25.9882 15.2067C24.0816 16.3627 23.1389 17.9801 23.1576 20.0561C23.1736 21.6734 23.7616 23.0187 24.9136 24.0867C25.4228 24.5741 26.0171 24.9641 26.6669 25.2374C26.5256 25.6467 26.3762 26.0374 26.2189 26.4134ZM21.3296 7.17206C21.3296 8.43873 20.8656 9.62273 19.9442 10.7174C18.8296 12.0187 17.4829 12.7721 16.0229 12.6534C16.0038 12.4941 15.9944 12.3338 15.9949 12.1734C15.9949 10.9561 16.5229 9.65473 17.4656 8.5894C17.9349 8.05073 18.5322 7.6014 19.2562 7.24406C19.9789 6.89206 20.6616 6.6974 21.3042 6.66406C21.3216 6.83473 21.3296 7.00406 21.3296 7.17206Z" fill="#0B0B0B"/>
<path d="M50.384 4.072H48.224V13H50.384C53.204 13 55.124 11.236 55.124 8.536C55.124 5.848 53.264 4.072 50.384 4.072ZM49.34 5.116H50.444C52.496 5.116 53.984 6.34 53.984 8.548C53.984 10.72 52.496 11.956 50.432 11.956H49.34V5.116ZM59.6171 13.144C61.4531 13.144 62.8331 11.704 62.8331 9.76C62.8331 7.804 61.4531 6.364 59.6171 6.364C57.7691 6.364 56.3771 7.804 56.3771 9.76C56.3771 11.716 57.7691 13.144 59.6171 13.144ZM59.6171 12.112C58.5251 12.112 57.4931 11.26 57.4931 9.76C57.4931 8.26 58.5251 7.396 59.6171 7.396C60.6971 7.396 61.7291 8.26 61.7291 9.76C61.7291 11.248 60.6971 12.112 59.6171 12.112ZM70.0576 13H71.3176L73.1416 6.508H72.0496L70.6696 11.764H70.6336L68.9896 6.508H67.8376L66.1816 11.764H66.1576L64.8016 6.508H63.6496L65.4856 13H66.7456L68.3896 7.912H68.4256L70.0576 13ZM77.5393 6.364C76.6152 6.364 75.9193 6.892 75.5473 7.492H75.5113L75.3913 6.508H74.5393V13H75.6433V9.04C75.6433 8.092 76.3393 7.42 77.2633 7.42C78.2353 7.42 78.7513 7.96 78.7513 9.1V13H79.8553V8.704C79.8553 7.276 78.9433 6.364 77.5393 6.364ZM81.8289 13H82.9329V3.4H81.8289V13ZM87.7889 13.144C89.6249 13.144 91.0049 11.704 91.0049 9.76C91.0049 7.804 89.6249 6.364 87.7889 6.364C85.9409 6.364 84.5489 7.804 84.5489 9.76C84.5489 11.716 85.9409 13.144 87.7889 13.144ZM87.7889 12.112C86.6969 12.112 85.6649 11.26 85.6649 9.76C85.6649 8.26 86.6969 7.396 87.7889 7.396C88.8689 7.396 89.9009 8.26 89.9009 9.76C89.9009 11.248 88.8689 12.112 87.7889 12.112ZM95.1416 13.144C96.0776 13.144 96.9656 12.688 97.4576 11.812L97.5896 13H98.4896V6.508H97.5896L97.4576 7.708C96.9656 6.832 96.0776 6.364 95.1416 6.364C93.6176 6.364 92.1896 7.684 92.1896 9.76C92.1896 11.812 93.6176 13.144 95.1416 13.144ZM95.3696 12.112C94.2056 12.112 93.3056 11.152 93.3056 9.76C93.3056 8.356 94.2056 7.396 95.3696 7.396C96.5096 7.396 97.4216 8.356 97.4216 9.748C97.4216 11.152 96.5096 12.112 95.3696 12.112ZM103.052 13.144C103.976 13.144 104.876 12.688 105.368 11.812L105.5 13H106.4V3.4H105.296V7.636C104.852 6.82 103.952 6.364 103.052 6.364C101.516 6.364 100.1 7.672 100.1 9.76C100.1 11.824 101.528 13.144 103.052 13.144ZM103.28 12.112C102.116 12.112 101.204 11.152 101.204 9.76C101.204 8.356 102.116 7.396 103.28 7.396C104.42 7.396 105.32 8.356 105.32 9.748C105.32 11.152 104.42 12.112 103.28 12.112ZM114.508 13.144C116.344 13.144 117.724 11.704 117.724 9.76C117.724 7.804 116.344 6.364 114.508 6.364C112.66 6.364 111.268 7.804 111.268 9.76C111.268 11.716 112.66 13.144 114.508 13.144ZM114.508 12.112C113.416 12.112 112.384 11.26 112.384 9.76C112.384 8.26 113.416 7.396 114.508 7.396C115.588 7.396 116.62 8.26 116.62 9.76C116.62 11.248 115.588 12.112 114.508 12.112ZM122.328 6.364C121.404 6.364 120.708 6.892 120.336 7.492H120.3L120.18 6.508H119.328V13H120.432V9.04C120.432 8.092 121.128 7.42 122.052 7.42C123.024 7.42 123.54 7.96 123.54 9.1V13H124.644V8.704C124.644 7.276 123.732 6.364 122.328 6.364Z" fill="#0B0B0B"/>
<path d="M58.248 35L53.544 23.096H51.864L47.192 35H48.76L50.152 31.384H55.256L56.648 35H58.248ZM52.696 24.76L54.76 30.056H50.632L52.696 24.76ZM59.7659 38.36H61.2379V33.496C61.8139 34.552 63.0299 35.192 64.2299 35.192C66.2779 35.192 68.1499 33.448 68.1499 30.664C68.1499 27.912 66.2619 26.152 64.2139 26.152C62.9819 26.152 61.7979 26.776 61.1419 27.944L60.9659 26.344H59.7659V38.36ZM63.9259 33.816C62.4059 33.816 61.2059 32.536 61.2059 30.68C61.2059 28.808 62.4059 27.528 63.9259 27.528C65.4779 27.528 66.6779 28.808 66.6779 30.664C66.6779 32.552 65.4779 33.816 63.9259 33.816ZM70.3128 38.36H71.7848V33.496C72.3608 34.552 73.5768 35.192 74.7768 35.192C76.8248 35.192 78.6968 33.448 78.6968 30.664C78.6968 27.912 76.8088 26.152 74.7608 26.152C73.5288 26.152 72.3448 26.776 71.6888 27.944L71.5128 26.344H70.3128V38.36ZM74.4728 33.816C72.9528 33.816 71.7528 32.536 71.7528 30.68C71.7528 28.808 72.9528 27.528 74.4728 27.528C76.0248 27.528 77.2248 28.808 77.2248 30.664C77.2248 32.552 76.0248 33.816 74.4728 33.816ZM80.8916 35H82.3636V22.2H80.8916V35ZM92.4384 30.504C92.4384 27.656 90.7584 26.152 88.7104 26.152C86.4704 26.152 84.5344 27.912 84.5344 30.712C84.5344 33.384 86.2304 35.192 88.9184 35.192C90.0384 35.192 91.0624 34.872 91.9424 34.232V32.776C91.0464 33.544 90.0224 33.912 89.0304 33.912C87.3984 33.912 86.1824 32.872 85.9744 31.16H92.3904C92.4224 30.968 92.4384 30.76 92.4384 30.504ZM85.9744 30.056C86.1984 28.44 87.3664 27.432 88.6944 27.432C89.8784 27.432 90.9824 28.264 91.0144 30.056H85.9744ZM102.394 22.84C100.298 22.84 98.6341 24.024 98.6341 26.088C98.6341 27.976 100.042 28.696 101.786 29.48C103.45 30.232 104.33 30.776 104.33 31.88C104.33 33.16 103.178 33.864 101.85 33.864C100.65 33.864 99.4021 33.32 98.5861 32.488V34.152C99.3061 34.712 100.522 35.256 101.914 35.256C104.074 35.256 105.866 33.976 105.866 31.8C105.866 29.848 104.41 29.08 102.602 28.28C100.97 27.544 100.138 27.048 100.138 26.008C100.138 24.824 101.194 24.232 102.41 24.232C103.338 24.232 104.394 24.568 105.226 25.16V23.624C104.522 23.192 103.498 22.84 102.394 22.84ZM109.715 24.312H108.307V26.344H106.979V27.624H108.275V31.976C108.275 33.992 109.491 35.112 111.363 35.112C111.843 35.112 112.227 35.048 112.387 35.016V33.736C112.115 33.784 111.859 33.816 111.619 33.816C110.515 33.816 109.715 33.256 109.715 31.912V27.624H112.195V26.344H109.715V24.312ZM117.823 35.192C120.271 35.192 122.111 33.272 122.111 30.68C122.111 28.072 120.271 26.152 117.823 26.152C115.359 26.152 113.503 28.072 113.503 30.68C113.503 33.288 115.359 35.192 117.823 35.192ZM117.823 33.816C116.367 33.816 114.991 32.68 114.991 30.68C114.991 28.68 116.367 27.528 117.823 27.528C119.263 27.528 120.639 28.68 120.639 30.68C120.639 32.664 119.263 33.816 117.823 33.816ZM124.25 35H125.722V30.072C125.722 28.376 126.89 27.64 128.042 27.64C128.25 27.64 128.458 27.672 128.65 27.704V26.296C128.474 26.264 128.298 26.248 128.074 26.248C127.306 26.248 126.186 26.6 125.594 27.72H125.578L125.418 26.344H124.25V35ZM137.329 30.504C137.329 27.656 135.649 26.152 133.601 26.152C131.361 26.152 129.425 27.912 129.425 30.712C129.425 33.384 131.121 35.192 133.809 35.192C134.929 35.192 135.953 34.872 136.833 34.232V32.776C135.937 33.544 134.913 33.912 133.921 33.912C132.289 33.912 131.073 32.872 130.865 31.16H137.281C137.313 30.968 137.329 30.76 137.329 30.504ZM130.865 30.056C131.089 28.44 132.257 27.432 133.585 27.432C134.769 27.432 135.873 28.264 135.905 30.056H130.865Z" fill="#0B0B0B"/>
</svg>
