<svg width="38" height="38" viewBox="0 0 38 38" fill="none" xmlns="http://www.w3.org/2000/svg">
<circle cx="19" cy="19" r="19" fill="#2FB9F9"/>
<path d="M14.3716 12.3626V14.7781C15.1768 13.8903 16.4774 13.2297 17.9639 13.2297C19.76 13.2297 20.751 14.2413 20.751 15.5213C20.751 16.8632 19.6981 17.8542 17.5097 17.8542H15.9613V19.8361H17.9019C20.0077 19.8361 21.1845 20.8477 21.1845 22.2723C21.1845 23.7174 19.9458 24.7497 18.0258 24.7497C16.3535 24.7497 14.9703 24.0271 14 22.9329V25.5135C15.1561 26.4839 16.6013 27 18.3148 27C21.8039 27 23.6826 24.8323 23.6826 22.52C23.6826 20.5174 22.4026 19.2374 20.9574 18.7006V18.6387C22.3406 17.9987 23.1871 16.7187 23.1871 15.1497C23.1871 12.9613 21.4116 11 18.3148 11C16.6839 11 15.28 11.5574 14.3716 12.3626Z" fill="white"/>
</svg>
