<svg width="32" height="32" viewBox="0 0 32 32" fill="none" xmlns="http://www.w3.org/2000/svg">
<path d="M26.2189 22.4134C25.8497 23.2741 25.3935 24.0948 24.8576 24.8627C24.1416 25.8854 23.5536 26.5921 23.1029 26.9854C22.4029 27.6281 21.6509 27.9587 20.8469 27.9774C20.2709 27.9774 19.5749 27.8134 18.7642 27.4801C17.9509 27.1481 17.2042 26.9854 16.5202 26.9854C15.8042 26.9854 15.0362 27.1481 14.2136 27.4801C13.3922 27.8134 12.7282 27.9881 12.2202 28.0041C11.4509 28.0374 10.6816 27.6987 9.91489 26.9854C9.42555 26.5587 8.81355 25.8254 8.07889 24.7881C7.29222 23.6827 6.64555 22.3961 6.13889 20.9334C5.59622 19.3507 5.32422 17.8201 5.32422 16.3374C5.32422 14.6401 5.69089 13.1747 6.42555 11.9481C6.98122 10.9847 7.77562 10.1806 8.73222 9.6134C9.67551 9.04762 10.7523 8.74298 11.8522 8.73073C12.4656 8.73073 13.2696 8.92006 14.2656 9.2934C15.2616 9.66673 15.9016 9.85606 16.1802 9.85606C16.3909 9.85606 17.0989 9.6334 18.3042 9.19206C19.4416 8.78273 20.4016 8.6134 21.1882 8.68006C23.3216 8.85206 24.9229 9.69206 25.9882 11.2067C24.0816 12.3627 23.1389 13.9801 23.1576 16.0561C23.1736 17.6734 23.7616 19.0187 24.9136 20.0867C25.4228 20.5741 26.0171 20.9641 26.6669 21.2374C26.5256 21.6467 26.3762 22.0374 26.2189 22.4134ZM21.3296 3.17206C21.3296 4.43873 20.8656 5.62273 19.9442 6.7174C18.8296 8.01873 17.4829 8.77206 16.0229 8.6534C16.0038 8.49412 15.9944 8.33382 15.9949 8.1734C15.9949 6.95606 16.5229 5.65473 17.4656 4.5894C17.9349 4.05073 18.5322 3.6014 19.2562 3.24406C19.9789 2.89206 20.6616 2.6974 21.3042 2.66406C21.3216 2.83473 21.3296 3.00406 21.3296 3.17206Z" fill="white"/>
</svg>
