<svg width="24" height="25" viewBox="0 0 24 25" fill="none" xmlns="http://www.w3.org/2000/svg">
<g clip-path="url(#clip0)">
<path d="M11.2322 11.7329V8.2084C9.8613 8.13132 8.52664 7.84675 7.24939 7.35938C6.87802 8.70249 6.65658 10.1851 6.60156 11.7329H11.2322Z" fill="white"/>
<path d="M11.2322 16.7901V13.2656H6.60156C6.65658 14.8134 6.87802 16.296 7.24939 17.6391C8.52664 17.1517 9.8613 16.8671 11.2322 16.7901Z" fill="white"/>
<path d="M7.73047 5.90816C8.84032 6.33751 10.0179 6.59678 11.2318 6.67386V1.76953C9.54903 2.27338 8.37449 4.26765 7.73047 5.90816Z" fill="white"/>
<path d="M16.267 19.0899C15.1571 18.6606 13.9795 18.4013 12.7656 18.3242V23.2285C14.4485 22.7247 15.623 20.7304 16.267 19.0899Z" fill="white"/>
<path d="M5.0699 11.7355C5.129 9.96516 5.39236 8.26443 5.83898 6.72856C4.76847 6.17138 3.78335 5.47342 2.89658 4.64453C1.17304 6.63528 0.164398 9.10425 0 11.7355H5.0699Z" fill="white"/>
<path d="M18.9331 13.2656C18.874 15.0359 18.6107 16.7367 18.1641 18.2725C19.2346 18.8297 20.2197 19.5277 21.1065 20.3565C22.83 18.3658 23.8386 15.8968 24.003 13.2656H18.9331Z" fill="white"/>
<path d="M5.0699 13.2656H0C0.164398 15.8968 1.17304 18.3658 2.89658 20.3565C3.78335 19.5277 4.76847 18.8297 5.83898 18.2725C5.39236 16.7367 5.129 15.0359 5.0699 13.2656Z" fill="white"/>
<path d="M11.2357 23.2285V18.3242C10.0218 18.4013 8.84422 18.6605 7.73438 19.0899C8.37938 20.7331 9.55416 22.7251 11.2357 23.2285Z" fill="white"/>
<path d="M17.6596 19.7422C16.9355 21.5559 15.7577 23.4473 14.0469 24.3557C16.2698 23.9768 18.3322 22.9814 20.0301 21.4545C19.3045 20.7803 18.5088 20.2072 17.6596 19.7422Z" fill="white"/>
<path d="M6.33928 19.7422C5.49006 20.2072 4.69432 20.7803 3.96875 21.4545C5.66666 22.9814 7.7291 23.9768 9.95199 24.3557C8.24088 23.4471 7.06315 21.5555 6.33928 19.7422Z" fill="white"/>
<path d="M6.33928 5.26195C7.06334 3.44822 8.24112 1.55685 9.95199 0.648438C7.7291 1.02737 5.66666 2.02272 3.96875 3.54967C4.69436 4.22388 5.49006 4.79692 6.33928 5.26195Z" fill="white"/>
<path d="M12.7656 13.2656V16.7901C14.1365 16.8672 15.4712 17.1517 16.7484 17.6391C17.1198 16.296 17.3412 14.8134 17.3963 13.2656H12.7656Z" fill="white"/>
<path d="M18.1641 6.72856C18.6107 8.26443 18.874 9.96516 18.9331 11.7355H24.003C23.8386 9.10425 22.83 6.63528 21.1065 4.64453C20.2197 5.47342 19.2346 6.17134 18.1641 6.72856Z" fill="white"/>
<path d="M12.7656 8.2084V11.7329H17.3963C17.3412 10.1851 17.1198 8.70249 16.7484 7.35938C15.4712 7.84675 14.1365 8.13137 12.7656 8.2084Z" fill="white"/>
<path d="M12.7656 1.76953V6.67381C13.9796 6.59678 15.1571 6.33751 16.267 5.90811C15.622 4.26498 14.4472 2.27301 12.7656 1.76953Z" fill="white"/>
<path d="M14.0469 0.648438C15.758 1.55699 16.9357 3.4486 17.6596 5.26195C18.5088 4.79692 19.3046 4.22383 20.0301 3.54962C18.3322 2.02277 16.2698 1.02737 14.0469 0.648438Z" fill="white"/>
</g>
<defs>
<clipPath id="clip0">
<rect width="24" height="24" fill="white" transform="translate(0 0.5)"/>
</clipPath>
</defs>
</svg>
